<?xml version="1.0" encoding="UTF-8"?>
<svg width="36px" height="36px" viewBox="0 0 36 36" version="1.1" xmlns="http://www.w3.org/2000/svg" xmlns:xlink="http://www.w3.org/1999/xlink">
    <!-- Generator: Sketch 52 (66869) - http://www.bohemiancoding.com/sketch -->
    <title>分组</title>
    <desc>Created with Sketch.</desc>
    <g id="页面-1" stroke="none" stroke-width="1" fill="none" fill-rule="evenodd">
        <g id="自定义配置-长图" transform="translate(-1503.000000, -14.000000)" fill-rule="nonzero">
            <g id="分组-4" transform="translate(1503.000000, 14.000000)">
                <g id="分组">
                    <circle id="椭圆形" fill-opacity="0.8" fill="#FFFFFF" cx="18" cy="18" r="18"></circle>
                    <g id="yonghudenglu" transform="translate(8.608696, 7.043478)" fill="#111111">
                        <path d="M13.6418533,12.0352847 C15.9983666,12.0352847 17.9052388,13.9766185 18.043085,16.4020549 L18.0512901,16.6843114 L18.0512901,17.230773 C18.0512901,19.3969273 16.4545718,21.1856457 14.4114945,21.3251329 L14.1538534,21.333338 L3.89744089,21.333338 C1.81826093,21.333338 0.139491333,19.629953 0.00820926589,17.4999013 L4.11024225e-06,17.230773 L4.11024225e-06,16.6843114 C-0.00327792894,14.1292339 1.95938916,12.0352847 4.409441,12.0352847 C5.2496463,12.0352847 5.91918491,12.1747719 6.81518511,12.4882079 L8.07221104,12.9493361 L8.30851878,13.0182592 C8.57764703,13.0921054 8.8073907,13.128208 9.02564713,13.128208 C9.24390356,13.128208 9.47200619,13.0921054 9.74113448,13.0182592 L9.97744222,12.9493361 L11.2361092,12.4898489 C12.1337504,12.1747719 12.803289,12.0352847 13.6418533,12.0352847 Z M13.6418533,13.6763107 C13.0133403,13.6763107 12.4996992,13.7846184 11.7497503,14.0471825 L10.5419552,14.4919006 L10.1743653,14.6018494 L9.87898066,14.6740545 C9.59874911,14.7361503 9.31267366,14.7680587 9.02564713,14.769234 C8.73752301,14.7682934 8.45033474,14.7363835 8.16903156,14.6740545 L7.77190328,14.5723109 L7.60451863,14.5230801 L6.30154395,14.0471825 C5.5532361,13.7846184 5.03795395,13.6763107 4.409441,13.6763107 C2.96697915,13.6763107 1.76574811,14.8808238 1.64923524,16.4365164 L1.64103012,16.6843114 L1.64103012,17.230773 C1.64103012,18.5206194 2.54687648,19.5626709 3.68082546,19.6808248 L3.89744089,19.692312 L14.1538534,19.692312 C15.3156998,19.692312 16.2888282,18.7273887 16.400418,17.4703628 L16.4102641,17.230773 L16.4102641,16.6843114 C16.4102641,15.0104648 15.1581613,13.6763107 13.6418533,13.6763107 Z M14.7692381,0 L14.7692381,5.74359099 C14.7689963,8.87467281 12.2609849,11.4286642 9.13042408,11.4857827 C5.99986328,11.5429012 3.40035467,9.08209874 3.28589512,5.95310969 C3.17143557,2.82412064 5.58420305,0.17996733 8.71057014,0.00820511719 L9.02564713,0 L14.7692381,0 Z M13.1282121,1.64102598 L9.02564713,1.64102598 C6.79492491,1.64136949 4.97326755,3.4240521 4.92468688,5.65424529 C4.87610622,7.88443848 6.61840752,9.74475538 8.8469988,9.84223686 C11.0755901,9.93971834 12.9736716,8.23863651 13.120007,6.01271924 L13.1282121,5.74359099 L13.1282121,1.64102598 Z" id="合并形状"></path>
                    </g>
                </g>
            </g>
        </g>
    </g>
</svg>