<?xml version="1.0" encoding="UTF-8"?>
<svg width="14px" height="14px" viewBox="0 0 14 14" version="1.1" xmlns="http://www.w3.org/2000/svg" xmlns:xlink="http://www.w3.org/1999/xlink">
    <!-- Generator: Sketch 52 (66869) - http://www.bohemiancoding.com/sketch -->
    <title>tianjia-7</title>
    <desc>Created with Sketch.</desc>
    <g id="页面-1" stroke="none" stroke-width="1" fill="none" fill-rule="evenodd">
        <g id="生成密码" transform="translate(-726.000000, -585.000000)" fill="#1733FF">
            <g id="分组-6" transform="translate(561.000000, 340.000000)">
                <g id="tianjia-7" transform="translate(165.000000, 245.000000)">
                    <path d="M13.3000653,6.30026542 L7.70044817,6.30026542 L7.70044817,0.699534422 C7.6992224,0.313266447 7.38606928,0.000611180173 6.99979984,0 C6.61396534,0.00122293591 6.30148836,0.313699921 6.30026542,0.699534422 L6.30026542,6.30026542 L0.699534422,6.30026542 C0.313699921,6.30148836 0.00122293591,6.61396534 0,6.99979984 C0.000611180173,7.38606928 0.313266447,7.6992224 0.699534422,7.70044817 L6.30026542,7.70044817 L6.30026542,13.3000653 C6.30148836,13.6858998 6.61396534,13.9983767 6.99979984,13.9995997 C7.38606928,13.9989885 7.6992224,13.6863332 7.70044817,13.3000653 L7.70044817,7.70044817 L13.3000653,7.70044817 C13.6863332,7.6992224 13.9989885,7.38606928 13.9995997,6.99979984 C13.9983767,6.61396534 13.6858998,6.30148836 13.3000653,6.30026542 Z" id="路径"></path>
                </g>
            </g>
        </g>
    </g>
</svg>