<?xml version="1.0" encoding="UTF-8"?>
<svg width="16px" height="18px" viewBox="0 0 16 18" version="1.1" xmlns="http://www.w3.org/2000/svg" xmlns:xlink="http://www.w3.org/1999/xlink">
    <!-- Generator: Sketch 52 (66869) - http://www.bohemiancoding.com/sketch -->
    <title>fuzhi</title>
    <desc>Created with Sketch.</desc>
    <g id="页面-1" stroke="none" stroke-width="1" fill="none" fill-rule="evenodd">
        <g id="生成密码" transform="translate(-894.000000, -584.000000)" fill="#1733FF" fill-rule="nonzero">
            <g id="分组-6" transform="translate(561.000000, 340.000000)">
                <g id="fuzhi" transform="translate(333.000000, 244.000000)">
                    <path d="M12,2.46153846 C12.8486154,2.46153846 13.5384615,3.152 13.5384615,4 L13.5384615,15.6923077 C13.5384615,16.5409231 12.8486154,17.2307692 12,17.2307692 L1.53846154,17.2307692 C0.690461538,17.2307692 1.74971149e-13,16.5409231 1.74971149e-13,15.6923077 L1.74971149e-13,4 C0.00101726656,3.15075288 0.689214415,2.46255573 1.53846154,2.46153846 L12,2.46153846 Z M12.3076923,15.6923077 L12.3076923,4 C12.3076923,3.83006623 12.1699338,3.69230769 12,3.69230769 L1.53846154,3.69230769 C1.36852777,3.69230769 1.23076923,3.83006623 1.23076923,4 L1.23076923,15.6923077 C1.23076923,15.8622415 1.36852777,16 1.53846154,16 L12,16 C12.1692308,16 12.3076923,15.8615385 12.3076923,15.6923077 Z M14.4615385,1.11910481e-12 C15.3101538,1.11910481e-12 16,0.690461538 16,1.53846154 L16,13.2307692 C16,13.5706368 15.7244829,13.8461538 15.3846154,13.8461538 C15.0447478,13.8461538 14.7692308,13.5706368 14.7692308,13.2307692 L14.7692308,1.53846154 C14.7692308,1.36852777 14.6314722,1.23076923 14.4615385,1.23076923 L4,1.23076923 C3.66013246,1.23076923 3.38461538,0.955252154 3.38461538,0.615384615 C3.38461538,0.275517077 3.66013246,1.11910481e-12 4,1.11910481e-12 L14.4615385,1.11910481e-12 Z M9.84615385,5.69230769 C10.1860214,5.69230769 10.4615385,5.96782477 10.4615385,6.30769231 C10.4615385,6.64755985 10.1860214,6.92307692 9.84615385,6.92307692 L3.69230769,6.92307692 C3.35244015,6.92307692 3.07692308,6.64755985 3.07692308,6.30769231 C3.07692308,5.96782477 3.35244015,5.69230769 3.69230769,5.69230769 L9.84615385,5.69230769 Z M9.84615385,8.76923077 C10.1860214,8.76923077 10.4615385,9.04474785 10.4615385,9.38461538 C10.4615385,9.72448292 10.1860214,10 9.84615385,10 L3.69230769,10 C3.35244015,10 3.07692308,9.72448292 3.07692308,9.38461538 C3.07692308,9.04474785 3.35244015,8.76923077 3.69230769,8.76923077 L9.84615385,8.76923077 Z M7.38461538,11.8203077 C7.72448292,11.8203077 8,12.0958248 8,12.4356923 C8,12.7755598 7.72448292,13.0510769 7.38461538,13.0510769 L3.69230769,13.0510769 C3.35244015,13.0510769 3.07692308,12.7755598 3.07692308,12.4356923 C3.07692308,12.0958248 3.35244015,11.8203077 3.69230769,11.8203077 L7.38461538,11.8203077 Z" id="合并形状"></path>
                </g>
            </g>
        </g>
    </g>
</svg>