<?xml version="1.0" encoding="UTF-8"?>
<svg width="20px" height="18px" viewBox="0 0 20 18" version="1.1" xmlns="http://www.w3.org/2000/svg" xmlns:xlink="http://www.w3.org/1999/xlink">
    <!-- Generator: Sketch 52 (66869) - http://www.bohemiancoding.com/sketch -->
    <title>zhuyi-2</title>
    <desc>Created with Sketch.</desc>
    <g id="页面-1" stroke="none" stroke-width="1" fill="none" fill-rule="evenodd">
        <g id="注册账号-1" transform="translate(-989.000000, -684.000000)" fill="#A94443" fill-rule="nonzero">
            <g id="zhuyi-2" transform="translate(989.000000, 684.000000)">
                <path d="M19.7942857,15.5478571 L11.2342857,0.713571429 C10.6857143,-0.235 9.31428571,-0.235 8.77714286,0.713571429 L0.205714286,15.5478571 C-0.342857143,16.4964286 0.342857143,17.685 1.44,17.685 L18.56,17.685 C19.6571429,17.6735714 20.3428571,16.4964286 19.7942857,15.5478571 Z M9.34857143,6.15357143 C9.34857143,5.78785714 9.64571429,5.50214286 10,5.50214286 C10.3657143,5.50214286 10.6514286,5.79928571 10.6514286,6.15357143 L10.6514286,12.805 C10.6514286,13.1707143 10.3542857,13.4564286 10,13.4564286 C9.63428571,13.4564286 9.34857143,13.1592857 9.34857143,12.805 L9.34857143,6.15357143 Z M10,15.5364286 C9.63428571,15.5364286 9.32571429,15.2392857 9.32571429,14.8621429 C9.32571429,14.4964286 9.62285714,14.1878571 10,14.1878571 C10.3657143,14.1878571 10.6742857,14.485 10.6742857,14.8621429 C10.6742857,15.2392857 10.3657143,15.5364286 10,15.5364286 Z" id="形状"></path>
            </g>
        </g>
    </g>
</svg>