<?xml version="1.0" encoding="UTF-8"?>
<svg width="14px" height="14px" viewBox="0 0 14 14" version="1.1" xmlns="http://www.w3.org/2000/svg" xmlns:xlink="http://www.w3.org/1999/xlink">
    <!-- Generator: Sketch 52 (66869) - http://www.bohemiancoding.com/sketch -->
    <title>xinjian01</title>
    <desc>Created with Sketch.</desc>
    <g id="页面-1" stroke="none" stroke-width="1" fill="none" fill-rule="evenodd">
        <g id="自定义配置-长图" transform="translate(-492.000000, -1305.000000)" fill="#0360FF">
            <g id="分组-7" transform="translate(361.000000, 938.000000)">
                <g id="xinjian01" transform="translate(131.000000, 367.000000)">
                    <path d="M9.828,6.384 C10.094,6.384 10.318,6.608 10.318,6.874 C10.318,7.14 10.094,7.364 9.828,7.364 L7.616,7.364 L7.616,9.576 C7.616,9.842 7.392,10.066 7.126,10.066 C6.86,10.066 6.636,9.842 6.636,9.576 L6.636,7.364 L4.424,7.364 C4.158,7.364 3.934,7.14 3.934,6.874 C3.934,6.608 4.158,6.384 4.424,6.384 L6.636,6.384 L6.636,4.172 C6.636,3.906 6.86,3.682 7.126,3.682 C7.392,3.682 7.616,3.906 7.616,4.172 L7.616,6.384 L9.828,6.384 Z M7,0 C10.864,0 14,3.136 14,7 C14,10.864 10.864,14 7,14 C3.136,14 0,10.864 0,7 C0,3.136 3.136,0 7,0 Z M7,13.02 C10.318,13.02 13.02,10.332 13.02,7 C13.02,3.668 10.318,0.98 7,0.98 C3.682,0.98 0.98,3.682 0.98,7 C0.98,10.318 3.682,13.02 7,13.02 Z" id="合并形状"></path>
                </g>
            </g>
        </g>
    </g>
</svg>