<?xml version="1.0" encoding="UTF-8"?>
<svg width="24px" height="24px" viewBox="0 0 24 24" version="1.1" xmlns="http://www.w3.org/2000/svg" xmlns:xlink="http://www.w3.org/1999/xlink">
    <!-- Generator: Sketch 52 (66869) - http://www.bohemiancoding.com/sketch -->
    <title>guanbi-2</title>
    <desc>Created with Sketch.</desc>
    <g id="页面-1" stroke="none" stroke-width="1" fill="none" fill-rule="evenodd">
        <g id="自定义配置-长图" transform="translate(-1498.000000, -1229.000000)" fill="#D7D8DE">
            <g id="分组-7" transform="translate(361.000000, 938.000000)">
                <g id="guanbi-2" transform="translate(1137.000000, 291.000000)">
                    <path d="M0,12 C8.11624501e-16,5.372583 5.372583,-4.05812251e-16 12,0 C18.627417,4.05812251e-16 24,5.372583 24,12 C24,18.627417 18.627417,24 12,24 C5.372583,24 8.11624501e-16,18.627417 0,12 Z M13.0153846,12 L17.3538461,7.66153847 C17.6307692,7.38461538 17.6307692,6.92307694 17.3538461,6.64615385 C17.0769231,6.36923077 16.6153846,6.36923077 16.3384615,6.64615385 L12,10.9846154 L7.66153847,6.64615385 C7.38461538,6.36923077 6.92307694,6.36923077 6.64615385,6.64615385 C6.36923077,6.92307694 6.36923077,7.38461538 6.64615385,7.66153847 L10.9846154,12 L6.64615385,16.3384615 C6.36923077,16.6153846 6.36923077,17.0769231 6.64615385,17.3538461 C6.83076923,17.4461539 7.01538462,17.5384615 7.2,17.5384615 C7.38461538,17.5384615 7.56923077,17.4461538 7.66153847,17.3538461 L12,13.0153846 L16.3384615,17.3538461 C16.4307692,17.4461539 16.6153846,17.5384615 16.8,17.5384615 C16.9846154,17.5384615 17.1692308,17.4461538 17.2615385,17.3538461 C17.5384616,17.0769231 17.5384616,16.6153846 17.2615385,16.3384615 L13.0153846,12 Z" id="合并形状"></path>
                </g>
            </g>
        </g>
    </g>
</svg>