<?xml version="1.0" encoding="UTF-8"?>
<svg width="12px" height="12px" viewBox="0 0 12 12" version="1.1" xmlns="http://www.w3.org/2000/svg" xmlns:xlink="http://www.w3.org/1999/xlink">
    <!-- Generator: Sketch 52 (66869) - http://www.bohemiancoding.com/sketch -->
    <title>yindao</title>
    <desc>Created with Sketch.</desc>
    <g id="页面-1" stroke="none" stroke-width="1" fill="none" fill-rule="evenodd">
        <g id="自定义配置-长图" transform="translate(-947.000000, -1108.000000)" fill="#0360FF" fill-rule="nonzero">
            <g id="分组-7" transform="translate(361.000000, 938.000000)">
                <g id="yindao" transform="translate(586.000000, 170.000000)">
                    <path d="M8.91682349,11.9999648 L8.89740558,11.9999648 C8.57935259,11.7913148 8.29282649,11.5381824 8.0465565,11.2482795 C7.23204717,10.4330554 6.41330739,9.64608502 5.5903137,8.8555639 C5.03625282,9.47315194 4.52277386,10.1119157 3.94611929,10.7471521 C3.86036173,10.8389096 3.53392519,11.3400254 3.26924629,11.2659162 C3.04444616,11.2059164 3.14608259,10.7753708 3.17255516,10.4965825 C3.26077365,9.55785482 3.34442184,8.63323643 3.44323405,7.77567253 C2.56626396,7.46512657 1.72880939,7.22161166 0.774202805,6.90752664 C0.532820707,6.82636281 0.00804489844,6.72753888 0.000638671875,6.48403569 C-0.00676755469,6.2405325 0.440711602,6.08878685 0.639050859,5.97938092 C4.17410691,4.07016776 7.61671402,2.2491731 11.102364,0.329354508 C11.2234183,0.26230002 11.7157215,-0.0835427227 11.9140491,0.0187968164 C12.0943884,0.114069973 11.9369943,0.583451414 11.8946429,0.752845453 C10.9961455,4.34190135 10.130109,7.79333264 9.24501784,11.3435644 C9.18396333,11.5905949 9.12362366,11.9999648 8.91682349,11.9999648 Z M0.832433109,6.42404759 C1.52589983,6.65342973 2.22642122,6.86870254 2.94070037,7.10162373 C3.16160662,7.20830167 3.39559732,7.28542912 3.63663974,7.33101758 C3.78015408,7.24791098 3.9109037,7.14449856 4.02483391,7.02398723 C5.76889521,5.6158898 7.36226554,4.32425296 9.0922175,2.95145229 C9.29513878,2.79264026 9.68650873,2.34091893 9.92401194,2.37267664 C10.299503,2.4256218 10.022121,2.83146436 9.90460575,2.99026467 C8.55579329,4.84655611 7.18722308,6.70283583 5.90123467,8.48854545 C6.78844691,9.342582 7.72611995,10.2707277 8.58932054,11.1318189 C8.62948623,11.1924261 8.69229216,11.2343812 8.76365987,11.2482795 C9.64592682,7.75096948 10.5687757,4.18661664 11.393867,0.696372961 C7.88668978,2.61971889 4.34139158,4.50070166 0.832444828,6.42404759 L0.832433109,6.42404759 Z M4.46737949,7.27454509 C4.25297505,7.40802704 4.06325697,7.5775653 3.90660379,7.77567253 C3.86546442,7.98486118 3.84595553,8.19772726 3.84838521,8.41090895 C3.78944007,9.08143042 3.73050664,9.65313968 3.65499124,10.3024854 C5.53597402,8.44973306 7.02277434,6.09936885 8.56779326,3.97487116 C7.24264089,5.03712586 5.83135596,6.19112639 4.46843418,7.27454509 L4.46737949,7.27454509 Z" id="形状"></path>
                </g>
            </g>
        </g>
    </g>
</svg>