<?xml version="1.0" encoding="UTF-8"?>
<svg width="14px" height="14px" viewBox="0 0 14 14" version="1.1" xmlns="http://www.w3.org/2000/svg" xmlns:xlink="http://www.w3.org/1999/xlink">
    <!-- Generator: Sketch 52 (66869) - http://www.bohemiancoding.com/sketch -->
    <title>shuoming-2 copy</title>
    <desc>Created with Sketch.</desc>
    <g id="页面-1" stroke="none" stroke-width="1" fill="none" fill-rule="evenodd">
        <g id="自定义配置-长图" transform="translate(-732.000000, -1305.000000)" fill="#999999" fill-rule="nonzero">
            <g id="分组-7" transform="translate(361.000000, 938.000000)">
                <g id="shuoming-2-copy" transform="translate(371.000000, 367.000000)">
                    <path d="M6.98811005,13.98811 C5.14935407,13.98811 3.35062201,13.2417225 2.05260766,11.9393541 C0.732655502,10.6200718 0.00485645933,8.86421053 0.00485645933,6.99614833 C0.00485645933,3.14062201 3.14095694,0.00351674641 6.99648325,0.00318181818 C10.8526794,0.00318181818 13.9894498,3.13961722 13.9894498,6.99514354 C13.9894498,10.8503349 10.8533493,13.9874402 6.99849282,13.98811 L6.98811005,13.98811 Z M6.99648325,0.99423445 C3.68739234,0.994569378 0.995741627,3.68722488 0.995741627,6.99614833 C0.995741627,8.59944976 1.62021531,10.1061244 2.7537799,11.2393541 C3.86791866,12.3568421 5.41059809,12.9970574 6.98794258,12.9970574 L6.9976555,12.9970574 C10.3067464,12.9967225 12.9983971,10.304067 12.9983971,6.99514354 C12.9983971,3.6862201 10.306244,0.99423445 6.99648325,0.99423445 Z" id="形状"></path>
                    <path d="M6.95528708,8.7327512 C6.68181818,8.7327512 6.45976077,8.51086124 6.45976077,8.23722488 L6.45976077,7.03399522 C6.45976077,6.76052632 6.68165072,6.5384689 6.95528708,6.5384689 C7.67722488,6.5384689 8.26502392,5.95100478 8.26502392,5.22906699 C8.26502392,4.50712919 7.67722488,3.91966507 6.95528708,3.91966507 C6.23334928,3.91966507 5.64555024,4.50712919 5.64555024,5.22906699 C5.64555024,5.50253589 5.42366029,5.7245933 5.15002392,5.7245933 C4.87638756,5.7245933 4.65449761,5.50270335 4.65449761,5.22906699 C4.65449761,3.96069378 5.68674641,2.9287799 6.95511962,2.9287799 C8.22349282,2.9287799 9.25574163,3.96069378 9.25574163,5.22906699 C9.25574163,6.32746411 8.48155502,7.24834928 7.45064593,7.47559809 L7.45064593,8.23722488 C7.45064593,8.51069378 7.22875598,8.7327512 6.95528708,8.7327512 Z M6.99782297,9.47394737 C6.55002392,9.47394737 6.1861244,9.83784689 6.1861244,10.2849761 C6.1861244,10.7324402 6.55002392,11.0963397 6.99782297,11.0963397 C7.44495215,11.0963397 7.80885167,10.7324402 7.80885167,10.2849761 C7.80885167,9.83784689 7.44495215,9.47394737 6.99782297,9.47394737 Z" id="形状"></path>
                </g>
            </g>
        </g>
    </g>
</svg>