<?xml version="1.0" encoding="utf-8"?>
<!-- Generator: Adobe Illustrator 24.0.2, SVG Export Plug-In . SVG Version: 6.00 Build 0)  -->
<svg version="1.1" id="图层_1" xmlns="http://www.w3.org/2000/svg" xmlns:xlink="http://www.w3.org/1999/xlink" x="0px" y="0px"
	 viewBox="0 0 60 36.9" style="enable-background:new 0 0 60 36.9;" xml:space="preserve">
<style type="text/css">
	.st0{fill:#FFFFFF;}
</style>
<title>合并形状</title>
<desc>Created with Sketch.</desc>
<g id="页面-1">
	<g id="首页-" transform="translate(-384.000000, -40.000000)">
		<path id="合并形状" class="st0" d="M425.5,47.1h0.8c3.3,0,6.1,2,7.3,4.8c5.8,0.3,10.4,5.1,10.4,11c0,6.1-4.9,11-11,11h-15
			c-0.5,1.7-2.1,3-3.9,3c-2.3,0-4.1-1.8-4.1-4.1c0-2.3,1.8-4.1,4.1-4.1c1.8,0,3.3,1.1,3.9,2.7h15c4.7,0,8.5-3.8,8.5-8.5
			c0-4.3-3.1-7.8-7.2-8.4l0,0c-0.2,0-0.4,0-0.6,0h-2c-0.3-2.7-2.6-4.9-5.4-4.9h-24.6c-3,0-5.4,2.4-5.4,5.4s2.4,5.4,5.4,5.4h19.8
			c0.5-1.7,2.1-3,3.9-3c2.3,0,4.1,1.8,4.1,4.1s-1.8,4.1-4.1,4.1c-1.8,0-3.3-1.1-3.9-2.7h-19.9c-4.4,0-7.9-3.5-7.9-7.9
			c0-0.2,0-0.3,0-0.5c-4.1,0.6-7.2,4.1-7.2,8.4c0,4.7,3.8,8.5,8.5,8.5h7.5l0,0c0.6,0.1,1,0.6,1,1.2s-0.4,1.1-1,1.2l0,0H395
			c-6.1,0-11-4.9-11-11c0-5.9,4.6-10.7,10.4-11c1.2-2.8,4-4.8,7.3-4.8h0.8c2.1-4.2,6.5-7.1,11.5-7.1S423.4,42.9,425.5,47.1z
			 M422.6,47.1c-1.9-2.7-5-4.5-8.5-4.5l0,0l0,0c-3.5,0-6.7,1.8-8.6,4.5l0,0c-0.5,0.8-1,1.6-1.3,2.5h19.6
			C423.5,48.7,423.1,47.9,422.6,47.1z M425.5,63.1c0.9,0,1.6-0.7,1.6-1.6s-0.7-1.6-1.6-1.6s-1.6,0.7-1.6,1.6S424.6,63.1,425.5,63.1z
			 M414,74.4c0.9,0,1.6-0.7,1.6-1.6s-0.7-1.6-1.6-1.6s-1.6,0.7-1.6,1.6C412.4,73.7,413.1,74.4,414,74.4z"/>
	</g>
</g>
</svg>
