<?xml version="1.0" encoding="UTF-8"?>
<svg width="14px" height="9px" viewBox="0 0 14 9" version="1.1" xmlns="http://www.w3.org/2000/svg" xmlns:xlink="http://www.w3.org/1999/xlink">
    <!-- Generator: Sketch 52 (66869) - http://www.bohemiancoding.com/sketch -->
    <title>duihao-5</title>
    <desc>Created with Sketch.</desc>
    <g id="页面-1" stroke="none" stroke-width="1" fill="none" fill-rule="evenodd">
        <g id="首页-" transform="translate(-618.000000, -1360.000000)" fill="#0360FF">
            <g id="duihao-5" transform="translate(618.000000, 1360.000000)">
                <path d="M5.27644279,8.99414325 C5.09830404,8.99452233 4.92738963,8.9267745 4.80169925,8.80596227 L0.204444051,4.4062129 C-0.0572177314,4.15507885 -0.0572177314,3.74866736 0.204444051,3.49753331 C0.331468683,3.37626962 0.499870045,3.30933914 0.679173804,3.30933914 C0.858477563,3.30933914 1.02720972,3.37626962 1.15391734,3.49753331 L5.2767598,7.44323968 L12.8472404,0.197414589 C12.9728489,0.0764853138 13.1438167,0.0087163152 13.321984,0.00923361034 C13.5013015,0.00923361034 13.6700061,0.0758475135 13.7967137,0.197414589 C14.0582014,0.448617489 14.0582014,0.854891283 13.7967137,1.10609418 L5.75118633,8.80596227 C5.62561815,8.92694901 5.45462405,8.99472842 5.27644279,8.99414325 Z" id="路径"></path>
            </g>
        </g>
    </g>
</svg>