<?xml version="1.0" encoding="UTF-8"?>
<svg width="126px" height="42px" viewBox="0 0 126 42" version="1.1" xmlns="http://www.w3.org/2000/svg" xmlns:xlink="http://www.w3.org/1999/xlink">
    <!-- Generator: Sketch 52 (66869) - http://www.bohemiancoding.com/sketch -->
    <title>分组 16</title>
    <desc>Created with Sketch.</desc>
    <g id="页面-1" stroke="none" stroke-width="1" fill="none" fill-rule="evenodd">
        <g id="首页-" transform="translate(-840.000000, -2460.000000)">
            <g id="分组-16" transform="translate(840.000000, 2460.000000)">
                <rect id="矩形" fill="#F29625" fill-rule="nonzero" x="0" y="0" width="126" height="42" rx="4"></rect>
                <path d="M32.7483617,32.947644 L32.3735256,33.8272251 L20.897772,33.8272251 L22.0799476,13.8020942 L15.5347313,13.8020942 L13.6317169,19.2554974 C12.4783691,22.6174688 10.6810956,27.7580806 8.23984273,34.6774869 L7.23066841,34.5602094 L9.22018349,29.0188482 C11.7575487,21.9235247 13.5548221,16.8513241 14.6120577,13.8020942 L7.02883355,13.8020942 L7,12.9518325 L14.9003932,12.9518325 L16.8034076,7.29319372 L17.8125819,7.29319372 L15.8230668,12.9518325 L28.3944954,12.9518325 L27.2411533,32.947644 L32.7483617,32.947644 Z M42.5517693,15.4146597 L42.5517693,21.3664921 L44.2529489,20.7507853 L44.5124509,21.513089 L42.5517693,22.2460733 L42.5517693,35 L35.3145478,32.3905759 L37.3040629,32.0094241 L37.3040629,24.1811518 L34.2477064,25.295288 L33.9593709,24.5329843 L37.3040629,23.3015707 C37.2848404,20.8778238 37.2752294,18.2488798 37.2752294,15.4146597 L34.4207077,15.4146597 L34.4207077,14.5937173 L37.2752294,14.5937173 L37.2752294,8.02617801 L42.5517693,8.02617801 L42.5517693,14.5937173 L44.570118,14.5937173 L44.310616,15.4146597 L42.5517693,15.4146597 Z M60.0537353,17.9947644 L56.4495413,17.9947644 L56.4495413,34.8240838 L55.5845347,34.8240838 L55.5845347,17.9947644 L50.8269987,17.9947644 L50.6828309,20.8680628 C50.4906063,24.6796002 50.2695513,28.8820015 50.0196592,33.4753927 L44.9737877,34.7068063 C45.4159044,26.5559802 45.8387922,18.1511777 46.242464,9.4921466 L59.5923984,8.23141361 L59.8230668,9.11099476 L51.2306684,9.75602094 L51.1730013,11.0460733 C51.1153339,12.3556785 51.009612,14.3982409 50.8558322,17.173822 L60.3132372,17.173822 L60.0537353,17.9947644 Z M73.6920052,7.43979058 C73.2306661,8.02618094 72.4425569,9.02302961 71.327654,10.4303665 L71.327654,34.5602094 L65.8204456,34.5602094 L65.8204456,17.2031414 C64.7824326,18.4150148 63.9174347,19.4020904 63.225426,20.1643979 L62.6775885,19.460733 C64.4268327,17.4865521 66.0751342,15.5563794 67.6225426,13.6701571 C69.1699509,11.7839347 70.9431966,9.56057127 72.9423329,7 L73.6920052,7.43979058 Z M77.5268676,16.3235602 L76.7771953,20.6921466 L74.412844,34.3842932 L73.4325033,34.208377 L76.6330275,16.3235602 L71.904325,16.3235602 L71.904325,15.5026178 L76.7771953,15.5026178 L78.1612058,7.38115183 L79.112713,7.38115183 L77.6710354,15.5026178 L89.3197903,15.5026178 L89.0602883,16.3235602 L77.5268676,16.3235602 Z M84.8794233,13.2157068 C84.3796393,13.2157068 83.9567514,13.0349058 83.6107471,12.6732984 C83.2647427,12.311691 83.0917431,11.8767914 83.0917431,11.3685864 C83.0917431,10.8603814 83.2695482,10.4303683 83.6251638,10.078534 C83.9807794,9.72669981 84.3988617,9.55078534 84.8794233,9.55078534 C85.3792074,9.55078534 85.8069008,9.72669981 86.1625164,10.078534 C86.518132,10.4303683 86.6959371,10.8603814 86.6959371,11.3685864 C86.6959371,11.8767914 86.518132,12.311691 86.1625164,12.6732984 C85.8069008,13.0349058 85.3792074,13.2157068 84.8794233,13.2157068 Z M90.0117955,32.3905759 L89.8099607,33.2115183 L78.8820446,33.2115183 L78.8820446,18.0240838 L84.965924,18.0240838 L84.965924,32.3905759 L90.0117955,32.3905759 Z M102.06422,24.6209424 L102.06422,22.1287958 L94.7693316,22.1287958 L94.740498,12.1015707 L102.06422,12.1015707 L102.06422,10.6062827 L93.7889908,10.6062827 L93.7889908,9.81465969 L102.06422,9.81465969 L102.06422,7.46910995 L108.349934,7.46910995 L108.349934,9.81465969 L115.961992,9.81465969 L115.673657,10.6062827 L108.349934,10.6062827 L108.349934,12.1015707 L115.961992,12.1015707 L115.961992,22.1287958 L108.349934,22.1287958 L108.349934,24.3277487 L113.741809,24.0931937 L112.732634,22.8910995 L113.395806,22.2753927 L117,26.4973822 L116.307995,27.1424084 L114.520315,25.0020942 L92.9528178,25.9403141 L92.8086501,25.0314136 L102.06422,24.6209424 Z M100.968545,12.9225131 L100.968545,16.6460733 L102.06422,16.6460733 L102.06422,12.9225131 L100.968545,12.9225131 Z M108.349934,12.9225131 L108.349934,16.6460733 L109.647444,16.6460733 L109.647444,12.9225131 L108.349934,12.9225131 Z M102.06422,21.278534 L102.06422,17.4670157 L100.968545,17.4670157 L100.968545,21.278534 L102.06422,21.278534 Z M109.647444,21.278534 L109.647444,17.4670157 L108.349934,17.4670157 L108.349934,21.278534 L109.647444,21.278534 Z M103.8519,28.2272251 C103.8519,27.6408348 104.058539,27.1375239 104.471822,26.7172775 C104.885105,26.2970311 105.380076,26.086911 105.95675,26.086911 C106.533424,26.086911 107.028395,26.2970311 107.441678,26.7172775 C107.854961,27.1375239 108.061599,27.6408348 108.061599,28.2272251 C108.061599,28.8136155 107.854961,29.3169263 107.441678,29.7371728 C107.028395,30.1574192 106.533424,30.3675393 105.95675,30.3675393 C105.380076,30.3675393 104.885105,30.1574192 104.471822,29.7371728 C104.058539,29.3169263 103.8519,28.8136155 103.8519,28.2272251 Z M102.496723,32.8303665 L115.760157,32.8303665 L115.414155,33.6806283 L96.5570118,33.6806283 L96.5570118,26.9958115 L102.496723,26.9958115 L102.496723,32.8303665 Z M114.260813,27.0837696 C114.895154,27.0837696 115.433375,27.3134357 115.875491,27.7727749 C116.317608,28.232114 116.538663,28.78429 116.538663,29.4293194 C116.538663,30.0548024 116.317608,30.5972054 115.875491,31.0565445 C115.433375,31.5158836 114.895154,31.7455497 114.260813,31.7455497 C113.626471,31.7455497 113.083445,31.5158836 112.631717,31.0565445 C112.179989,30.5972054 111.954128,30.0548024 111.954128,29.4293194 C111.954128,28.78429 112.179989,28.232114 112.631717,27.7727749 C113.083445,27.3134357 113.626471,27.0837696 114.260813,27.0837696 Z M95.2306684,27.9633508 L95.836173,28.4324607 L91.9436435,33.1528796 L91.2804718,32.5664921 L95.2306684,27.9633508 Z" id="九折优惠" fill="#FFFFFF"></path>
            </g>
        </g>
    </g>
</svg>