<?xml version="1.0" encoding="UTF-8"?>
<svg width="60px" height="60px" viewBox="0 0 60 60" version="1.1" xmlns="http://www.w3.org/2000/svg" xmlns:xlink="http://www.w3.org/1999/xlink">
    <!-- Generator: Sketch 52 (66869) - http://www.bohemiancoding.com/sketch -->
    <title>分组 7</title>
    <desc>Created with Sketch.</desc>
    <g id="页面-1" stroke="none" stroke-width="1" fill="none" fill-rule="evenodd">
        <g id="首页-" transform="translate(-1500.000000, -3911.000000)">
            <g id="分组-8" transform="translate(0.000000, 3650.000000)">
                <g id="分组-7" transform="translate(1500.000000, 261.000000)">
                    <circle id="椭圆形-copy" fill="#0360FF" fill-rule="nonzero" cx="30" cy="30" r="30"></circle>
                    <g id="paper-full" transform="translate(10.000000, 12.000000)" fill="#FFFFFF">
                        <path d="M33.9734479,1.45040998 L29.1210465,30.5681375 C29.0579852,30.9332292 28.8522062,31.2186646 28.5136665,31.4211246 C28.3377587,31.517376 28.1386177,31.5737993 27.9262007,31.5737993 C27.786802,31.5737993 27.6341273,31.5406091 27.4714955,31.4775478 L19.6120656,28.2647403 C19.1805935,28.0888325 18.6860601,28.2149551 18.3906677,28.5734088 L14.298321,33.5652089 C14.0693088,33.8572823 13.7573214,34 13.3689965,34 C13.2063647,34 13.066966,33.9734479 12.9474815,33.9236626 C12.7085123,33.8340492 12.5160094,33.6913315 12.3699727,33.4789145 C12.223936,33.2698165 12.1475986,33.0408044 12.1475986,32.7852401 L12.1475986,26.9304959 C12.1475986,26.4392815 12.3168684,25.9679813 12.6255369,25.5862944 L28.5269426,6.09371338 L8.50995705,23.418977 C8.35728231,23.5484186 8.14486529,23.5849278 7.96231942,23.5085904 L0.776649748,20.5646232 C0.308668502,20.3887154 0.053104248,20.0435377 0.0199141055,19.5191331 C-0.00663803516,19.0146427 0.195821938,18.6395939 0.627294023,18.3973057 L32.1712222,0.199140955 C32.3637251,0.0829754063 32.5628661,0.029871125 32.7786021,0.0298711582 C33.0341663,0.0298711582 33.2631784,0.102889512 33.4656384,0.242288184 C33.8871535,0.540999633 34.0497853,0.949238596 33.9734479,1.45040998 Z" id="路径"></path>
                    </g>
                </g>
            </g>
        </g>
    </g>
</svg>