<?xml version="1.0" encoding="UTF-8"?>
<svg width="22px" height="22px" viewBox="0 0 22 22" version="1.1" xmlns="http://www.w3.org/2000/svg" xmlns:xlink="http://www.w3.org/1999/xlink">
    <!-- Generator: Sketch 52 (66869) - http://www.bohemiancoding.com/sketch -->
    <title>duoyuyan</title>
    <desc>Created with Sketch.</desc>
    <g id="页面-1" stroke="none" stroke-width="1" fill="none" fill-rule="evenodd">
        <g id="首页-" transform="translate(-1146.000000, -47.000000)" fill="#FFFFFF" fill-rule="nonzero">
            <g id="duoyuyan" transform="translate(1146.000000, 47.000000)">
                <path d="M19.288288,18.2243724 C21.0354426,16.2246672 21.9897912,13.6910526 21.9897912,11.0105261 C21.9897912,8.07707121 20.8474335,5.3191351 18.7731392,3.24484078 C16.7307505,1.20242691 14.0253945,0.0643753468 11.1424547,0.0298508009 C11.0950873,0.0150941409 10.8892242,0.0152704116 10.8415546,0.0302285414 C7.97017349,0.0724839709 5.27690484,1.2097297 3.24179376,3.24484078 C1.20245211,5.28420761 0.0647279128,7.98447688 0.0269548479,10.8625817 C0.0164035839,10.9031751 0.0162021141,11.0742618 0.0264260358,11.1142509 C0.0530686264,14.0089002 1.19200156,16.7264192 3.24179376,18.7762114 C5.31608807,20.8505057 8.07399902,21.9928634 11.0074791,21.9928634 C13.9409339,21.9928634 16.6988701,20.8505057 18.7731644,18.7762114 C18.9242566,18.6251192 19.0698087,18.4699727 19.2109288,18.3118044 C19.2234191,18.3006487 19.235582,18.2889643 19.2471406,18.2763481 C19.2623253,18.2598035 19.2757222,18.2422768 19.288288,18.2243724 Z M1.04456076,11.4932405 L5.65868962,11.4932405 C5.69122481,13.1094988 5.88641073,14.625029 6.21251804,15.9747608 C4.69441926,16.3854041 3.73150871,16.9190366 3.23300523,17.2520941 C1.95169309,15.6592802 1.14863809,13.6665002 1.04456076,11.4932405 Z M3.22079193,4.78409246 C3.71519077,5.11770403 4.6786553,5.65675059 6.2068017,6.07013883 C5.88693954,7.40214239 5.69427181,8.89465623 5.65941987,10.4857074 L1.04649977,10.4857074 C1.15848427,8.33566549 1.95484083,6.36406351 3.22079193,4.78409246 Z M20.9684583,10.4856822 L16.3555131,10.4856822 C16.3206863,8.89521024 16.1281193,7.40320004 15.8084838,6.07154902 C17.3331047,5.66075454 18.2997422,5.12548526 18.8000588,4.79139526 C20.0625851,6.37015756 20.856625,8.33898953 20.9684583,10.4856822 Z M15.3477785,10.4856822 L11.4962875,10.4856822 L11.4962875,6.64580009 C12.7810747,6.6188553 13.8858609,6.48697702 14.8251506,6.30045371 C15.1342349,7.58345303 15.3135309,9.00417289 15.3477785,10.4856822 Z M11.4962875,5.63819145 L11.4962875,1.10537536 C12.402891,1.36127517 13.2872839,2.31625336 13.9799409,3.81269558 C14.1967582,4.28113174 14.3895519,4.78822231 14.5573649,5.32663934 C13.6954091,5.49329404 12.6798178,5.61227914 11.4962875,5.63819145 Z M10.4887292,1.11411354 L10.4887292,5.6372849 C9.31970374,5.60955948 8.31385785,5.48959228 7.45892786,5.32223249 C7.62643874,4.7854523 7.81877911,4.27982229 8.03499203,3.81264523 C8.7200692,2.33269723 9.59262661,1.3824029 10.4887292,1.11411354 Z M10.4887292,6.64529643 L10.4887292,10.4856822 L6.66715443,10.4856822 C6.70140199,9.00392108 6.88074842,7.58297457 7.18993342,6.29979895 C8.12101385,6.48523944 9.21557604,6.61691628 10.4887292,6.64529643 Z M6.66627306,11.4932405 L10.4887292,11.4932405 L10.4887292,15.3978152 C9.21869861,15.4272026 8.12582361,15.5593328 7.19557418,15.744874 C6.87996779,14.4434162 6.69827944,12.999277 6.66627306,11.4932405 Z M10.4887292,16.4058016 L10.4887292,20.9069386 C9.59260143,20.6386493 8.7200692,19.6883549 8.03501721,18.2083817 C7.82142322,17.746921 7.63119815,17.2478131 7.46514783,16.7183106 C8.31758479,16.5527891 9.3210384,16.4340558 10.4887292,16.4058016 Z M11.4962875,20.9156768 L11.4962875,16.4042403 C12.6751339,16.4294727 13.6889877,16.5485081 14.5506161,16.7156916 C14.3843643,17.2461511 14.1938623,17.7461404 13.9799409,18.2083566 C13.2872839,19.7047988 12.402891,20.659777 11.4962875,20.9156768 Z M11.4962875,15.3965561 L11.4962875,11.4932405 L15.3486599,11.4932405 C15.3167039,12.9967337 15.1355444,14.4385057 14.8209201,15.7382763 C13.8829901,15.5529113 12.7796646,15.422418 11.4962875,15.3965561 Z M16.3562685,11.4932405 L20.9703974,11.4932405 C20.8665215,13.662194 20.0664632,15.6514235 18.7895831,17.2426509 C18.2858669,16.9062944 17.3220498,16.3739967 15.8044798,15.9662492 C16.1293281,14.618658 16.3237837,13.1061244 16.3562685,11.4932405 Z M18.1246263,4.02946251 C17.6735658,4.31419574 16.8373712,4.75185946 15.5442235,5.0997744 C15.0693911,3.5480576 14.4095212,2.26969177 13.6232374,1.3844678 C15.3557109,1.85574954 16.901938,2.78315341 18.1246263,4.02946251 Z M8.39169553,1.38446783 C7.60654496,2.2684075 6.94740527,3.5443307 6.47274917,5.09302564 C5.18317734,4.74256732 4.34731015,4.30311567 3.89914554,4.02039699 C5.12044886,2.77864582 6.6634275,1.85461636 8.39169553,1.38446783 Z M3.91072925,18.0125159 C4.36068179,17.7286389 5.19279685,17.2931912 6.47818849,16.9460821 C6.9524417,18.4866936 7.60959198,19.7560442 8.39169553,20.6365844 C6.66889199,20.1679216 5.13019432,19.2483241 3.91072925,18.0125159 Z M13.6232374,20.6365844 C14.4058194,19.7555154 15.0632719,18.4851575 15.5376007,16.9432869 C16.8168731,17.2883814 17.6532439,17.7216886 18.1100208,18.006573 C16.8896239,19.2453527 15.3487858,20.1671913 13.6232374,20.6365844 Z" id="形状"></path>
            </g>
        </g>
    </g>
</svg>