<?xml version="1.0" encoding="UTF-8"?>
<svg width="12px" height="16px" viewBox="0 0 12 16" version="1.1" xmlns="http://www.w3.org/2000/svg" xmlns:xlink="http://www.w3.org/1999/xlink">
    <!-- Generator: Sketch 52 (66869) - http://www.bohemiancoding.com/sketch -->
    <title>31dingwei</title>
    <desc>Created with Sketch.</desc>
    <g id="页面-1" stroke="none" stroke-width="1" fill="none" fill-rule="evenodd">
        <g id="首页-" transform="translate(-387.000000, -1325.000000)" fill="#758199" fill-rule="nonzero">
            <g id="分组-10" transform="translate(387.000000, 1322.000000)">
                <g id="31dingwei" transform="translate(0.000000, 3.000000)">
                    <path d="M5.99912709,3.00904764 C4.58616027,3.00904764 3.43677491,4.1376988 3.43677491,5.5246939 C3.43677491,6.91139477 4.58616027,8.03888856 5.99912709,8.03888856 C7.41205466,8.03888856 8.5609104,6.91139475 8.5609104,5.5246939 C8.5609104,4.13767917 7.41205466,3.00904764 5.99912709,3.00904764 M5.99912709,6.92496911 C5.21363987,6.92496911 4.57462601,6.2966068 4.57462601,5.52410542 C4.57462601,4.75187868 5.21362024,4.12326134 5.99912709,4.12326134 C6.78402583,4.12326134 7.42300045,4.75187866 7.42300045,5.52410542 C7.42300045,6.29660678 6.78402583,6.92496911 5.99912709,6.92496911" id="形状"></path>
                    <path d="M11.9963945,5.89810585 C11.9963945,2.6500339 9.30602772,0.00780498403 5.99912709,0.00780498403 C2.69281495,0.00780498403 0.00356626198,2.6500339 0.00356626198,5.89810585 C0.00356626198,8.44543212 3.69570734,13.5782183 5.28398318,15.6665084 C5.45122999,15.8868167 5.71881311,16.0177149 5.99910748,16.0177149 C6.27879374,16.0177149 6.54698496,15.8868167 6.71478102,15.6665084 C8.30252722,13.5782379 11.9963945,8.44605981 11.9963945,5.89810585 M6.09369627,14.7749373 L5.99912709,14.9006372 L5.90453829,14.7749373 C2.90619882,10.7909676 1.0422384,7.38920356 1.0422384,5.89810585 C1.0422384,3.21319233 3.26548718,1.02886187 5.99912709,1.02886187 C8.73219813,1.02886187 10.9554077,3.21319231 10.9554077,5.89810585 C10.9559961,7.38977243 9.09317348,10.7909676 6.09369627,14.7749373" id="形状"></path>
                </g>
            </g>
        </g>
    </g>
</svg>