<?xml version="1.0" encoding="UTF-8"?>
<svg width="20px" height="23px" viewBox="0 0 20 23" version="1.1" xmlns="http://www.w3.org/2000/svg" xmlns:xlink="http://www.w3.org/1999/xlink">
    <!-- Generator: Sketch 52 (66869) - http://www.bohemiancoding.com/sketch -->
    <title>yonghudenglu</title>
    <desc>Created with Sketch.</desc>
    <g id="页面-1" stroke="none" stroke-width="1" fill="none" fill-rule="evenodd">
        <g id="首页-" transform="translate(-1419.000000, -46.000000)" fill="#FFFFFF" fill-rule="nonzero">
            <g id="yonghudenglu" transform="translate(1419.000000, 46.000000)">
                <path d="M14.5260475,12.8153494 C17.0352977,12.8153494 19.0657635,14.8825104 19.2125442,17.465151 L19.2212812,17.7657019 L19.2212812,18.3475824 C19.2212812,20.6541356 17.5210719,22.5587894 15.3455728,22.7073174 L15.0712328,22.7160543 L4.1500528,22.7160543 C1.93611118,22.7160543 0.148532438,20.9022648 0.00874134794,18.6341541 L4.37664684e-06,18.3475824 L4.37664684e-06,17.7657019 C-0.0034903873,15.0450175 2.0863866,12.8153494 4.6952381,12.8153494 C5.58990115,12.8153494 6.30283578,12.9638775 7.25691007,13.2976287 L8.5954099,13.788645 L8.84703389,13.8620353 C9.13360563,13.9406678 9.37824009,13.9791104 9.61064278,13.9791104 C9.84304546,13.9791104 10.0859325,13.9406678 10.3725043,13.8620353 L10.6241283,13.788645 L11.9643755,13.2993761 C12.9201972,12.9638775 13.6331318,12.8153494 14.5260475,12.8153494 Z M14.5260475,14.5627382 C13.8567976,14.5627382 13.3098648,14.6780659 12.5113082,14.9576481 L11.22523,15.4311905 L10.8338149,15.5482655 L10.519285,15.6251506 C10.2208903,15.6912711 9.91627287,15.7252477 9.61064278,15.7264992 C9.30384395,15.7254976 8.99804162,15.6915195 8.69850582,15.6251506 L8.27563775,15.5168125 L8.09740409,15.4643909 L6.70997736,14.9576481 C5.91316807,14.6780659 5.364488,14.5627382 4.6952381,14.5627382 C3.15928335,14.5627382 1.88019475,15.8453216 1.75613012,17.5018462 L1.74739319,17.7657019 L1.74739319,18.3475824 C1.74739319,19.72103 2.7119518,20.8306218 3.91939748,20.9564338 L4.1500528,20.9686656 L15.0712328,20.9686656 C16.308384,20.9686656 17.3445856,19.941201 17.463408,18.6027011 L17.4738924,18.3475824 L17.4738924,17.7657019 C17.4738924,15.9833653 16.1406347,14.5627382 14.5260475,14.5627382 Z M15.7265036,0 L15.7265036,6.11586078 C15.7262461,9.44988309 13.0556783,12.169411 9.72221083,12.2302316 C6.38874331,12.2910522 3.62074803,9.67075329 3.4988698,6.33895939 C3.37699158,3.0071655 5.94614213,0.191631879 9.27514413,0.00873693034 L9.61064278,0 L15.7265036,0 Z M13.9791148,1.74738877 L9.61064278,1.74738877 C7.23533671,1.74775455 5.29560897,3.6459814 5.24387955,6.02072415 C5.19215014,8.3954669 7.04737837,10.3763599 9.42041539,10.4801596 C11.7934524,10.5839593 13.8145577,8.77262221 13.9703778,6.40243253 L13.9791148,6.11586078 L13.9791148,1.74738877 Z" id="合并形状"></path>
            </g>
        </g>
    </g>
</svg>