<?xml version="1.0" encoding="UTF-8"?>
<svg width="14px" height="12px" viewBox="0 0 14 12" version="1.1" xmlns="http://www.w3.org/2000/svg" xmlns:xlink="http://www.w3.org/1999/xlink">
    <!-- Generator: Sketch 52 (66869) - http://www.bohemiancoding.com/sketch -->
    <title>gengduo-9</title>
    <desc>Created with Sketch.</desc>
    <g id="页面-1" stroke="none" stroke-width="1" fill="none" fill-rule="evenodd">
        <g id="首页-" transform="translate(-1171.000000, -1301.000000)" fill="#758199" fill-rule="nonzero">
            <g id="gengduo-9" transform="translate(1171.000000, 1301.000000)">
                <path d="M0.742109375,2.02285156 L2.27609375,3.55683594 L4.71105469,5.99042969 L5.27324219,6.55261719 L5.27324219,5.39351563 L3.73925781,6.9275 L1.30566406,9.36246094 L0.743203125,9.92464844 C0.4375,10.2284375 0.415625,10.7851563 0.742109375,11.0859375 C1.06859375,11.3867188 1.57800781,11.4099609 1.90230469,11.0859375 L3.43628906,9.55167969 L5.86988281,7.11808594 L6.43234375,6.55589844 C6.74542969,6.24253906 6.74625,5.70988281 6.43234375,5.39570313 L4.89808594,3.86171875 L2.46449219,1.428125 L1.90230469,0.8659375 C1.59851563,0.562148438 1.04179688,0.539453125 0.742109375,0.8659375 C0.442421875,1.19242188 0.418085938,1.70183594 0.742109375,2.02613281 L0.742109375,2.02285156 Z M7.56792969,2.02285156 L9.10191406,3.55683594 L11.5355078,5.99042969 L12.0976953,6.55261719 L12.0976953,5.39351563 L10.5637109,6.9275 L8.13011719,9.36246094 L7.56792969,9.92464844 C7.26414063,10.2284375 7.24144531,10.7848828 7.56792969,11.0848438 C7.89441406,11.3848047 8.40382813,11.4088672 8.728125,11.0848438 L10.2621094,9.55058594 L12.6957031,7.11699219 L13.2578906,6.55480469 C13.57125,6.24144531 13.5717969,5.70878906 13.2578906,5.39460938 L11.7239063,3.860625 L9.2903125,1.42703125 L8.728125,0.86265625 C8.4240625,0.558867188 7.86761719,0.536171875 7.56792969,0.86265625 C7.26824219,1.18914063 7.24363281,1.69855469 7.56792969,2.02285156 Z" id="形状"></path>
            </g>
        </g>
    </g>
</svg>