<?xml version="1.0" encoding="UTF-8"?>
<svg width="22px" height="25px" viewBox="0 0 22 25" version="1.1" xmlns="http://www.w3.org/2000/svg" xmlns:xlink="http://www.w3.org/1999/xlink">
    <!-- Generator: Sketch 52 (66869) - http://www.bohemiancoding.com/sketch -->
    <title>zhucedenglumima</title>
    <desc>Created with Sketch.</desc>
    <g id="页面-1" stroke="none" stroke-width="1" fill="none" fill-rule="evenodd">
        <g id="首页-" transform="translate(-1256.000000, -46.000000)" fill="#FFFFFF" fill-rule="nonzero">
            <g id="zhucedenglumima" transform="translate(1256.000000, 46.000000)">
                <path d="M18.3314539,8.56819015 L6.11240888,8.56819015 L6.11240888,6.12435428 C6.11240888,3.42930681 8.30497939,1.23673627 11.0000269,1.23673627 C13.6950743,1.23673627 15.8876449,3.42930679 15.8876449,6.12435428 C15.8876449,6.46177621 16.1611954,6.73529982 16.4986173,6.73529982 C16.8360393,6.73529982 17.1095897,6.46177623 17.1095897,6.12435428 C17.1095897,4.49240633 16.4740741,2.95814728 15.3201943,1.80424061 C14.1662608,0.65033394 12.6320287,0.014845222 11.0000538,0.014845222 C9.36807893,0.014845222 7.83384679,0.65033394 6.67991324,1.80424061 C5.52597969,2.95814728 4.89051785,4.4924063 4.89051785,6.12435428 L4.89051785,8.56819015 L3.66859992,8.56819015 C1.64732104,8.56819015 0.00287296897,10.2126113 0.00287296897,12.2338902 L0.00287296897,20.7872351 C0.00287296897,22.8084871 1.64732101,24.4529352 3.66859992,24.4529352 L18.3314808,24.4529352 C20.3527597,24.4529352 21.9972077,22.8084872 21.9972077,20.7872351 L21.9972077,12.2338902 C21.9971808,10.2126382 20.3527328,8.56819015 18.3314539,8.56819015 Z M20.7752629,20.787262 C20.7752629,22.1347723 19.678991,23.2310441 18.3314539,23.2310441 L3.66857301,23.2310442 C2.32106272,23.2310442 1.22476402,22.1347723 1.22476402,20.7872621 L1.22476402,12.2338902 C1.22476402,10.8863799 2.32106272,9.79008123 3.66857301,9.79008123 L18.3314539,9.79008123 C19.678991,9.79008123 20.7752629,10.8863799 20.7752629,12.2338902 L20.7752629,20.787262 Z M11.0000269,12.2338902 C9.3156323,12.2338902 7.94524547,13.6042502 7.94524547,15.2886447 C7.94524547,16.7649463 8.99794169,17.9999289 10.3920921,18.2825923 C10.3901028,18.3025925 10.3890545,18.3228884 10.3890545,18.3434262 L10.3890545,20.1762896 C10.3890545,20.5137116 10.662578,20.7872621 11,20.7872621 C11.3374219,20.7872621 11.6109455,20.5137116 11.6109455,20.1762896 L11.6109455,18.3434262 C11.6109455,18.3228884 11.6098972,18.3025925 11.6079348,18.2825655 C13.0020583,17.9999289 14.0547546,16.7649463 14.0547546,15.2886447 C14.0547814,13.604277 12.6843946,12.2338902 11.0000269,12.2338902 Z M11.0000269,17.1215082 C9.989374,17.1215082 9.16716341,16.2992976 9.16716341,15.2886447 C9.16716341,14.2779919 9.989374,13.4557813 11.0000269,13.4557813 C12.0106529,13.4557813 12.8328635,14.2779919 12.8328635,15.2886447 C12.8328635,16.2992976 12.0106529,17.1215082 11.0000269,17.1215082 Z" id="形状"></path>
            </g>
        </g>
    </g>
</svg>