<?xml version="1.0" encoding="UTF-8"?>
<svg width="100px" height="76px" viewBox="0 0 100 76" version="1.1" xmlns="http://www.w3.org/2000/svg" xmlns:xlink="http://www.w3.org/1999/xlink">
    <!-- Generator: Sketch 52 (66869) - http://www.bohemiancoding.com/sketch -->
    <title>分组 15</title>
    <desc>Created with Sketch.</desc>
    <defs>
        <linearGradient x1="0%" y1="52.8003988%" x2="100%" y2="57.4513149%" id="linearGradient-1">
            <stop stop-color="#FFF9F5" offset="0%"></stop>
            <stop stop-color="#FFE6D7" offset="100%"></stop>
        </linearGradient>
    </defs>
    <g id="页面-1" stroke="none" stroke-width="1" fill="none" fill-rule="evenodd">
        <g id="首页-" transform="translate(-1318.000000, -756.000000)" fill-rule="nonzero">
            <g id="分组-15" transform="translate(1318.000000, 756.000000)">
                <rect id="矩形-copy-14" fill="url(#linearGradient-1)" x="0" y="0" width="100" height="76" rx="8"></rect>
                <g id="shujuanquan" transform="translate(25.000000, 11.000000)">
                    <path d="M49.6756098,7.22439024 C49.6756098,7.22439024 49.3634146,6.91219512 49.0512195,6.91219512 C45.304878,6.91219512 41.5585366,6.6 37.5,5.35121951 C33.1292683,4.10243902 29.0707317,2.22926829 25.3243902,0.043902439 L24.7,0.043902439 C20.9536585,2.22926829 17.2073171,4.10243902 12.8365854,5.35121951 C8.77804878,6.6 4.7195122,6.91219512 0.66097561,6.91219512 C0.348780488,6.91219512 0.348780488,6.91219512 0.0365853659,7.22439024 L0.0365853659,31.5756098 C0.0365853659,38.7560976 8.15365854,46.8731707 24.3878049,56.2390244 C25.0121951,56.5512195 25.3243902,56.5512195 25.9487805,56.2390244 C42.1829268,49.0585366 49.9878049,40.9414634 49.9878049,31.5756098 L49.9878049,7.53658537 C49.9878049,7.53658537 49.9878049,7.22439024 49.6756098,7.22439024 Z" id="路径" fill="#FF8035"></path>
                    <rect id="矩形" fill-opacity="0.0575747283" fill="#FFFFFF" x="15" y="42" width="21.4285714" height="21.4285714"></rect>
                    <path d="M41.9978707,29.4750975 L38.0715834,29.4750975 L32.4626016,43.4685972 C31.6212544,45.2177847 29.0972125,45.2177847 28.5363144,43.4685972 L21.5250871,24.2275351 L17.8792489,30.05816 C17.5987998,30.6412225 16.7574526,30.9327537 16.1965544,30.9327537 L11.1484708,30.9327537 C10.0266744,30.9327537 8.90487805,30.05816 8.90487805,28.6005038 C8.90487805,27.4343788 9.74622532,26.2682538 11.1484708,26.2682538 L15.074758,26.2682538 L20.4032907,17.5223165 C21.244638,16.0646603 23.4882307,16.3561915 24.0491289,17.8138477 L30.499458,35.8887849 L34.7061943,26.5597851 C34.9866434,25.6851913 35.8279907,25.1021288 36.669338,25.1021288 L41.9978707,25.1021288 C43.1196671,25.1021288 44.2414634,25.9767226 44.2414634,27.4343788 C44.2414634,28.6005038 43.1196671,29.4750975 41.9978707,29.4750975 Z" id="路径" fill="#FFFFFF"></path>
                </g>
            </g>
        </g>
    </g>
</svg>