<?xml version="1.0" encoding="UTF-8"?>
<svg width="100px" height="76px" viewBox="0 0 100 76" version="1.1" xmlns="http://www.w3.org/2000/svg" xmlns:xlink="http://www.w3.org/1999/xlink">
    <!-- Generator: Sketch 52 (66869) - http://www.bohemiancoding.com/sketch -->
    <title>分组 12</title>
    <desc>Created with Sketch.</desc>
    <defs>
        <linearGradient x1="0%" y1="52.8003988%" x2="100%" y2="57.4513149%" id="linearGradient-1">
            <stop stop-color="#F9FBFF" offset="0%"></stop>
            <stop stop-color="#CADDFF" offset="100%"></stop>
        </linearGradient>
    </defs>
    <g id="页面-1" stroke="none" stroke-width="1" fill="none" fill-rule="evenodd">
        <g id="首页-" transform="translate(-503.000000, -756.000000)" fill-rule="nonzero">
            <g id="分组-12" transform="translate(503.000000, 756.000000)">
                <rect id="矩形" fill="url(#linearGradient-1)" x="0" y="0" width="100" height="76" rx="8"></rect>
                <g id="分组-9" transform="translate(20.000000, 11.000000)">
                    <path d="M14.9899512,42.4997263 L44.9630862,42.4997263 C53.2397049,42.4997263 59.9530374,36.3480939 59.9530374,28.7482225 C59.9530374,22.3055888 55.1210622,16.9051459 48.6107538,15.4095345 C47.6362378,6.76747233 39.6641554,-5.04485342e-13 29.973135,-5.04485342e-13 C20.2821146,-5.04485342e-13 12.3100322,6.76747233 11.3422836,15.4095345 C4.82520775,16.9186808 7.10542736e-14,22.3326587 7.10542736e-14,28.7482225 C7.10542736e-14,36.3413265 6.71333256,42.5064938 14.9899512,42.5064938 L14.9899512,42.4997263 Z" id="路径" fill="#0360FF"></path>
                    <rect id="矩形" fill-opacity="0.0575747283" fill="#FFFFFF" x="19.7142857" y="31.7142857" width="21.4285714" height="21.4285714"></rect>
                    <path d="M35.7322539,13.7515038 C36.3867144,13.7531601 37.0129876,14.0180578 37.4699985,14.4865258 C37.9270094,14.9549938 38.1763222,15.5876327 38.1617765,16.2419336 L38.1617765,30.9950233 L41.4846054,30.9950233 C41.927,31.0280428 42.2983893,31.3409605 42.4059842,31.7713401 C42.5135791,32.2017197 42.3331381,32.652595 41.9583285,32.8899156 L34.7915753,36.950399 C34.3007959,37.2041246 33.6972386,37.0248502 33.4245459,36.5443507 C33.3365567,36.3871546 33.2899811,36.2101674 33.2891964,36.0300227 L33.2891964,16.2419336 C33.2873991,15.5921989 33.5437828,14.9683619 34.0019455,14.5076609 C34.4601082,14.0469599 35.0825192,13.7871335 35.7322539,13.7853412 L35.7322539,13.7515038 Z" id="路径" fill="#FFFFFF"></path>
                    <path d="M17.2705894,24.8501584 C16.8377296,24.8878479 16.4283687,24.6476964 16.2500662,24.2514687 C16.0717638,23.8552411 16.1635135,23.3895898 16.4787951,23.0906156 L24.9449031,15.3215574 C25.2451729,15.0464351 25.6801378,14.9758693 26.0519858,15.1419516 C26.4238338,15.3080339 26.6615685,15.6790544 26.6570736,16.0862817 L26.6570736,35.5833696 C26.5420521,36.8411799 25.4872258,37.803948 24.2241673,37.803948 C22.9611088,37.803948 21.9062824,36.8411799 21.791261,35.5833696 L21.791261,24.8501584 L17.2705894,24.8501584 Z" id="路径" fill="#FFFFFF"></path>
                    <path d="M10.0496964,48.1302633 C8.63361653,48.1414139 7.49154798,49.2925465 7.49159188,50.7086702 C7.48799271,51.3889194 7.75477379,52.0427362 8.23324434,52.5262833 C8.7117149,53.0098305 9.36267965,53.2834969 10.042929,53.2870772 L49.903341,53.2870772 C51.3172363,53.2796209 52.4584284,52.1293477 52.4546781,50.7154377 C52.4582773,50.0351885 52.1914962,49.3813718 51.7130256,48.8978246 C51.2345551,48.4142774 50.5835903,48.140611 49.903341,48.1370307 L10.0496964,48.1370307 L10.0496964,48.1302633 Z" id="路径" fill="#0360FF"></path>
                </g>
            </g>
        </g>
    </g>
</svg>