<?xml version="1.0" encoding="UTF-8"?>
<svg width="100px" height="76px" viewBox="0 0 100 76" version="1.1" xmlns="http://www.w3.org/2000/svg" xmlns:xlink="http://www.w3.org/1999/xlink">
    <!-- Generator: Sketch 52 (66869) - http://www.bohemiancoding.com/sketch -->
    <title>分组 14</title>
    <desc>Created with Sketch.</desc>
    <defs>
        <linearGradient x1="0%" y1="52.8003988%" x2="100%" y2="52.8003988%" id="linearGradient-1">
            <stop stop-color="#F2FEFF" offset="0%"></stop>
            <stop stop-color="#DAFCFF" offset="100%"></stop>
        </linearGradient>
    </defs>
    <g id="页面-1" stroke="none" stroke-width="1" fill="none" fill-rule="evenodd">
        <g id="首页-" transform="translate(-920.000000, -756.000000)" fill-rule="nonzero">
            <g id="分组-14" transform="translate(920.000000, 756.000000)">
                <rect id="矩形-copy-8" fill="url(#linearGradient-1)" x="0" y="0" width="100" height="76" rx="8"></rect>
                <g id="xingneng" transform="translate(25.000000, 16.000000)">
                    <path d="M4.68045764,0 L47.9486883,0 C49.9456836,0 52.9411765,0.664953907 52.9411765,4.9871543 L52.9411765,37.5698957 C52.9411765,39.2322805 51.9426788,42.2245731 48.2815209,42.2245731 L5.01329019,42.2245731 C0.686467121,42.2245731 0.020802034,39.2322805 0.020802034,37.5698957 L0.020802034,4.9871543 C0.020802034,1.32990781 3.01629493,0 4.68045764,0 Z" id="路径" fill="#0BB8C7"></path>
                    <rect id="矩形" fill-opacity="0.0575747283" fill="#FFFFFF" x="14.8235294" y="31.7307692" width="22.6890756" height="22.6648352"></rect>
                    <path d="M12.3356061,47.5442043 C12.3356061,46.2142965 13.0012712,45.2168656 13.9997689,45.2168656 L38.9622096,45.2168656 C39.9607073,45.2168656 40.6263724,46.2142965 40.6263724,47.5442043 C40.6263724,48.8741121 39.9607073,49.871543 38.9622096,49.871543 L13.9997689,49.871543 C13.0012712,49.871543 12.3356061,48.8741121 12.3356061,47.5442043 Z" id="路径" fill="#0BB8C7"></path>
                    <path d="M43.5838454,25.1428571 C42.4645177,25.1428571 41.5267025,24.2967033 41.4056941,23.2087912 C40.4376269,15.5934066 33.9334252,9.70054945 26.067879,9.70054945 C18.2023328,9.70054945 11.6981311,15.5934066 10.7300639,23.1785714 C10.5788034,24.2967033 9.67124034,25.1126374 8.55191261,25.1126374 C7.22082017,25.1126374 6.19224874,23.9340659 6.37376135,22.6346154 C7.61409748,12.8736264 15.9636773,5.28846154 26.067879,5.28846154 C36.2023328,5.28846154 44.5519126,12.8434066 45.7619966,22.6346154 C45.9435092,23.9642857 44.9149378,25.1428571 43.5838454,25.1428571 Z" id="路径" fill="#FFFFFF"></path>
                    <path d="M24.3881709,28.3233924 C23.093081,29.1968487 22.2352941,30.7411554 22.2352941,32.501575 C22.2352941,35.2300003 24.2998694,37.440655 26.8480009,37.440655 C29.3961325,37.440655 31.4607077,35.2300003 31.4607077,32.501575 C31.4607077,30.7411554 30.6029209,29.1968487 29.3078309,28.3233924 L29.3078309,18.4992605 C29.3078309,17.0450008 28.2061635,15.8653846 26.8480009,15.8653846 C25.4898384,15.8653846 24.3881709,17.0450008 24.3881709,18.4992605 L24.3881709,28.3233924 Z" id="路径" fill="#FFFFFF"></path>
                </g>
            </g>
        </g>
    </g>
</svg>