<?xml version="1.0" encoding="UTF-8"?>
<svg width="60px" height="60px" viewBox="0 0 60 60" version="1.1" xmlns="http://www.w3.org/2000/svg" xmlns:xlink="http://www.w3.org/1999/xlink">
    <!-- Generator: Sketch 52 (66869) - http://www.bohemiancoding.com/sketch -->
    <title>分组 2</title>
    <desc>Created with Sketch.</desc>
    <g id="页面-1" stroke="none" stroke-width="1" fill="none" fill-rule="evenodd">
        <g id="首页-" transform="translate(-1403.000000, -3909.000000)" fill-rule="nonzero">
            <g id="分组-8" transform="translate(0.000000, 3650.000000)">
                <g id="分组-2" transform="translate(1403.000000, 259.000000)">
                    <circle id="椭圆形" fill="#00BD00" cx="30" cy="30" r="30"></circle>
                    <g id="weixin-2" transform="translate(10.000000, 13.000000)" fill="#FFFFFF">
                        <path d="M41.2342332,21.3330539 C41.2342332,15.4760804 35.4043381,10.7058824 28.8606625,10.7058824 C21.9291524,10.7058824 16.4705882,15.4802284 16.4705882,21.3330539 C16.4705882,27.1983235 21.9291524,31.9602255 28.8606625,31.9602255 C30.3129789,31.9602255 31.777673,31.5910536 33.2341153,31.2260298 L37.2279854,33.4244689 L36.1304963,29.7659344 C39.0557586,27.5591993 41.2342332,24.6348605 41.2342332,21.3330539 Z M25.0277025,19.7070386 C24.1158788,19.7070386 23.3773429,18.9645469 23.3773429,18.0478393 C23.3773429,17.1311317 24.1158788,16.38864 25.0277025,16.38864 C25.9395261,16.38864 26.678062,17.1311317 26.678062,18.0478393 C26.678062,18.9603989 25.9395261,19.7070386 25.0277025,19.7070386 Z M33.0443239,19.6945946 C32.1325003,19.6945946 31.3939644,18.9521029 31.3939644,18.0353953 C31.3939644,17.1186877 32.1325003,16.376196 33.0443239,16.376196 C33.9561476,16.376196 34.6946835,17.1186877 34.6946835,18.0353953 C34.6946835,18.9521029 33.9561476,19.6945946 33.0443239,19.6945946 Z" id="形状"></path>
                        <path d="M14.5685489,0 C6.56017918,0 0,5.48780171 0,12.4564388 C0,16.4799971 2.1826005,19.7818037 5.82989508,22.3452667 L4.37345279,26.7504408 L9.46481198,24.1828299 C11.2884593,24.5437057 12.7490275,24.9170256 14.5685489,24.9170256 C15.0265236,24.9170256 15.4803725,24.8962856 15.9300955,24.8589536 C15.6454085,23.880026 15.4803725,22.8554704 15.4803725,21.7894349 C15.4803725,15.3890736 20.9471885,10.1957797 27.8663209,10.1957797 C28.3407992,10.1957797 28.8070258,10.2289637 29.2691265,10.2828877 C28.0066014,4.38443417 21.7311093,0 14.5685489,0 Z M9.67523282,10.0505998 C8.58186962,10.0505998 7.69480137,9.15878017 7.69480137,8.05956063 C7.69480137,6.96034109 8.58186962,6.06852146 9.67523282,6.06852146 C10.768596,6.06852146 11.6556643,6.96034109 11.6556643,8.05956063 C11.6556643,9.15878017 10.768596,10.0505998 9.67523282,10.0505998 Z M19.8496994,10.0505998 C18.7563362,10.0505998 17.8692679,9.15878017 17.8692679,8.05956063 C17.8692679,6.96034109 18.7563362,6.06852146 19.8496994,6.06852146 C20.9430626,6.06852146 21.8301308,6.96034109 21.8301308,8.05956063 C21.8301308,9.15878017 20.9430626,10.0505998 19.8496994,10.0505998 Z" id="形状"></path>
                    </g>
                </g>
            </g>
        </g>
    </g>
</svg>