<?xml version="1.0" encoding="utf-8"?>
<!-- Generator: Adobe Illustrator 24.0.2, SVG Export Plug-In . SVG Version: 6.00 Build 0)  -->
<svg version="1.1" id="图层_1" xmlns="http://www.w3.org/2000/svg" xmlns:xlink="http://www.w3.org/1999/xlink" x="0px" y="0px"
	 viewBox="0 0 13 18.2" style="enable-background:new 0 0 13 18.2;" xml:space="preserve">
<style type="text/css">
	.st0{fill:#7C848E;}
</style>
<title>zhangdan</title>
<desc>Created with Sketch.</desc>
<g id="页面-1">
	<g id="用户中心" transform="translate(-33.000000, -314.000000)">
		<g id="zhangdan" transform="translate(33.000000, 314.000000)">
			<path id="形状" class="st0" d="M12.4,2.6H9.1C9.1,1.2,7.9,0,6.5,0S3.9,1.2,3.9,2.6H0.6C0.3,2.6,0,2.9,0,3.2v14.3
				c0,0.4,0.3,0.7,0.6,0.7h11.7c0.4,0,0.6-0.3,0.6-0.7V3.2C13,2.9,12.7,2.6,12.4,2.6z M6.5,2c0.4,0,0.7,0.3,0.7,0.6S6.9,3.2,6.5,3.2
				S5.8,3,5.8,2.6S6.1,2,6.5,2z M9.8,10.4H7.2v1.3h2.6V13H7.2v2.6H5.8V13H3.2v-1.3h2.6v-1.3H3.2V9.1h1.7L3.2,7.4l0.9-0.9l2.3,2.3
				l2.3-2.3l0.9,0.9L8.1,9.1h1.7V10.4z"/>
		</g>
	</g>
</g>
</svg>
