<?xml version="1.0" encoding="UTF-8"?>
<svg width="76px" height="76px" viewBox="0 0 76 76" version="1.1" xmlns="http://www.w3.org/2000/svg" xmlns:xlink="http://www.w3.org/1999/xlink">
    <!-- Generator: Sketch 52 (66869) - http://www.bohemiancoding.com/sketch -->
    <title>分组 3 copy</title>
    <desc>Created with Sketch.</desc>
    <g id="页面-1" stroke="none" stroke-width="1" fill="none" fill-rule="evenodd">
        <g id="用户中心-空状态" transform="translate(-1098.000000, -378.000000)">
            <g id="分组-3-copy" transform="translate(1099.000000, 379.000000)">
                <g id="zhangdan-2" transform="translate(18.000000, 17.000000)" fill="#CCD1D9">
                    <path d="M36.7451747,32.8528173 C37.415812,32.8528174 37.9805592,33.4175646 37.9805592,34.0882019 C37.9805592,34.7588391 37.415812,35.3235863 36.7451747,35.3235863 L32.474274,35.3235863 L32.474274,38.6061795 C32.474274,39.2768168 31.9095268,39.841564 31.2388895,39.841564 C30.5682522,39.841564 30.003505,39.2768168 30.003505,38.6061795 L30.003505,35.3235863 L25.7326043,35.3235863 C25.061967,35.3235863 24.4972198,34.7588392 24.4972198,34.0882019 C24.4972198,33.4175645 25.061967,32.8528173 25.7326043,32.8528173 L30.003505,32.8528173 L30.003505,29.9231912 L25.7326043,29.9231912 C25.061967,29.9231912 24.4972198,29.358444 24.4972198,28.6878067 C24.4972198,28.0171694 25.061967,27.4524222 25.7326043,27.4524222 L27.7798129,27.4524222 L27.0385822,25.7934773 C26.7562086,25.1581367 27.0385822,24.4522027 27.6739228,24.1698291 C28.3092634,23.8874555 29.0151974,24.1698291 29.297571,24.8051697 L30.4623621,27.4524222 L32.5801641,27.4524222 L33.7449552,24.8051697 C34.0273288,24.1698291 34.7332628,23.8874555 35.3686034,24.1698291 C36.003944,24.4522027 36.2863176,25.1581367 36.003944,25.7934773 L35.2627133,27.4524222 L36.7451747,27.4524222 C37.415812,27.4524222 37.9805592,28.0171694 37.9805592,28.6878067 C37.9805592,29.358444 37.415812,29.9231912 36.7451747,29.9231912 L32.474274,29.9231912 L32.474274,32.8528173 L36.7451747,32.8528173 Z M20.8969563,36.417784 C21.5675937,36.417784 22.0970442,37.017828 22.0970442,37.6884653 C22.0970442,38.3591025 21.5322969,38.9238497 20.8616597,38.9238497 L3.31919968,38.9238497 C1.51906797,38.9238497 0.0366065527,37.4413883 0.0366065527,35.6412566 L0.0366065527,3.3094793 C0.0366065527,1.50934759 1.51906797,0.0268861722 3.31919968,0.0268861722 L31.7330433,0.0268861722 C33.533175,0.0268861722 35.0156364,1.50934759 35.0156364,3.3094793 L35.0156364,19.7577415 C35.0156364,20.4283789 34.4508892,20.9931261 33.7802519,20.9931261 C33.1096146,20.993126 32.5448674,20.4283788 32.5448674,19.7577415 L32.5448674,3.3094793 C32.5448674,2.88591884 32.1919004,2.49765516 31.7330433,2.49765516 L3.31919968,2.49765516 C2.89563922,2.49765521 2.50737554,2.85062221 2.50737554,3.3094793 L2.50737554,35.6059599 C2.50737559,36.0295204 2.86034259,36.417784 3.31919968,36.417784 L20.8969563,36.417784 Z M28.2033733,5.67435821 C28.8740106,5.67435821 29.4387579,6.23910541 29.4387578,6.9097427 C29.4387578,7.58037998 28.8740106,8.14512719 28.2033733,8.14512719 L6.49590267,8.14512719 C5.82526539,8.14512719 5.26051818,7.58037998 5.26051818,6.9097427 C5.26051818,6.23910541 5.82526539,5.67435821 6.49590267,5.67435821 L28.2033733,5.67435821 Z M29.4387578,12.9101817 C29.4387578,13.580819 28.8740106,14.1455662 28.2033733,14.1455662 L6.49590267,14.1455662 C5.82526539,14.1455662 5.26051818,13.580819 5.26051818,12.9101817 C5.26051818,12.2395445 5.82526539,11.6747972 6.49590267,11.6747972 L28.2033733,11.6747972 C28.8740106,11.6747972 29.4387578,12.2395445 29.4387578,12.9101817 Z M5.33111158,19.2282911 C5.33102013,18.7490388 5.58664562,18.3061524 6.00167498,18.0664999 C6.41670434,17.8268474 6.92806801,17.8268474 7.34309737,18.0664999 C7.75812674,18.3061524 8.01375223,18.7490388 8.01366077,19.2282911 C8.01375223,19.7075433 7.75812674,20.1504297 7.34309737,20.3900822 C6.92806801,20.6297348 6.41670434,20.6297348 6.00167498,20.3900822 C5.58664562,20.1504297 5.33102013,19.7075433 5.33111158,19.2282911 Z M10.0255727,19.2282911 C10.0255727,18.4875255 10.6260818,17.8870164 11.3668473,17.8870164 C12.1076128,17.8870164 12.7081219,18.4875255 12.7081219,19.2282911 C12.7081219,19.9690566 12.1076128,20.5695657 11.3668473,20.5695657 C10.6260818,20.5695657 10.0255727,19.9690566 10.0255727,19.2282911 Z M14.7200338,19.2282911 C14.7199424,18.7490388 14.9755679,18.3061524 15.3905972,18.0664999 C15.8056266,17.8268474 16.3169902,17.8268474 16.7320196,18.0664999 C17.147049,18.3061524 17.4026745,18.7490388 17.402583,19.2282911 C17.4026745,19.7075433 17.147049,20.1504297 16.7320196,20.3900822 C16.3169902,20.6297348 15.8056266,20.6297348 15.3905972,20.3900822 C14.9755679,20.1504297 14.7199424,19.7075433 14.7200338,19.2282911 Z" id="合并形状"></path>
                </g>
                <circle id="椭圆形" stroke="#CCD1D9" fill-rule="nonzero" cx="37" cy="37" r="37"></circle>
            </g>
        </g>
    </g>
</svg>