<?xml version="1.0" encoding="UTF-8"?>
<svg width="72px" height="72px" viewBox="0 0 72 72" version="1.1" xmlns="http://www.w3.org/2000/svg" xmlns:xlink="http://www.w3.org/1999/xlink">
    <!-- Generator: Sketch 52 (66869) - http://www.bohemiancoding.com/sketch -->
    <title>分组 5</title>
    <desc>Created with Sketch.</desc>
    <g id="页面-1" stroke="none" stroke-width="1" fill="none" fill-rule="evenodd">
        <g id="用户推广" transform="translate(-870.000000, -150.000000)" fill="#0360FF" fill-rule="nonzero">
            <g id="分组-5" transform="translate(870.000000, 150.000000)">
                <rect id="矩形-copy-29" opacity="0.122140067" x="0" y="0" width="72" height="72" rx="10"></rect>
                <g id="dianji" transform="translate(18.000000, 17.000000)">
                    <path d="M15.7421826,14.6337996 L19.4008731,35.84702 C19.4008731,35.84702 22.1051225,33.0632339 24.3372829,31.1209978 L29.2454699,37.6917595 C29.443029,37.9585924 29.8740668,37.9765523 30.2024766,37.7353764 L32.2986548,36.2036526 C32.6296303,35.9624766 32.7373898,35.5493987 32.537265,35.2825657 L27.7624944,28.8914031 C30.2563563,27.8856481 34.3640445,26.7413452 34.3640445,26.7413452 L15.7421826,14.6337996 Z M9.83593764,24.4296481 L4.38895323,28.4116169 C3.56536303,29.0145568 3.41655234,30.1742539 4.06824053,31.0337639 C4.71992873,31.8907082 5.92324276,32.11649 6.74426726,31.5161158 L12.1912517,27.534147 C13.0328018,26.9183786 13.1739154,25.7099332 12.5222272,24.8529889 C11.8731047,23.9934788 10.6774878,23.8138797 9.83593764,24.4296481 Z M35.546833,8.01685523 C34.8951448,7.15991091 33.7174878,6.9674833 32.8579777,7.59608018 L27.4494788,11.552392 C26.5899688,12.1809889 26.4411581,13.3432517 27.0928463,14.200196 C27.7445345,15.0571403 28.9478486,15.282922 29.8073586,14.6543252 L35.2158575,10.6980134 C36.0753675,10.0694165 36.1985212,8.87379955 35.546833,8.01685523 Z M10.2746726,3.92199555 C9.63581292,3.08301114 8.4607216,2.89058352 7.59864588,3.5191804 C6.79301559,4.10929176 6.62624499,5.28181737 7.26510468,6.12080178 L11.4959465,11.6858085 C12.1348062,12.5273586 13.3278575,12.704392 14.1334878,12.1142806 C14.9929978,11.4856837 15.1443742,10.3259866 14.5055145,9.48443653 L10.2746726,3.92199555 Z M20.9582539,10.5338085 C22.0076258,10.7031448 22.9723296,9.99757684 23.1083118,8.96103341 L23.957559,2.23376392 C24.0935412,1.19978619 23.3571849,0.229951002 22.2924187,0.0426547884 C21.2430468,-0.126681514 20.278343,0.578886414 20.1423608,1.61286414 L19.2905479,8.34269933 C19.1596971,9.37924276 19.8960535,10.3465122 20.9582539,10.5338085 Z M10.692882,18.0410512 C10.79551,17.0019421 10.0591537,16.0346726 9.02774165,15.8499421 L2.21067261,14.7287305 C1.12538085,14.5850512 0.178636971,15.2777906 0.0606146993,16.3015056 C-0.0958930958,17.3816659 0.640463252,18.3489354 1.72575501,18.4926147 L8.54282405,19.6138263 C9.57423608,19.7934254 10.5235457,19.100686 10.692882,18.0410512 Z" id="形状"></path>
                </g>
            </g>
        </g>
    </g>
</svg>