<?xml version="1.0" encoding="UTF-8"?>
<svg width="16px" height="16px" viewBox="0 0 16 16" version="1.1" xmlns="http://www.w3.org/2000/svg" xmlns:xlink="http://www.w3.org/1999/xlink">
    <!-- Generator: Sketch 52 (66869) - http://www.bohemiancoding.com/sketch -->
    <title>querenzhong</title>
    <desc>Created with Sketch.</desc>
    <g id="页面-1" stroke="none" stroke-width="1" fill="none" fill-rule="evenodd">
        <g id="用户推广" transform="translate(-329.000000, -277.000000)" fill="#0360FF">
            <g id="querenzhong" transform="translate(329.000000, 277.000000)">
                <path d="M11.1839465,11.5496098 C11.3123746,11.6477146 11.4693423,11.6994426 11.6298774,11.6976589 C11.9991081,11.6976589 12.29699,11.439019 12.29699,11.1179487 C12.29699,10.9306577 12.193534,10.7629877 12.0347826,10.657748 L10.006689,9.22898551 L8.72240803,8.31750279 L8.71348941,8.31750279 L8.71348941,3.9509476 L8.71170569,3.9509476 C8.69565217,3.64414716 8.40312152,3.39799331 8.04459309,3.39799331 C7.68606466,3.39799331 7.393534,3.64236343 7.37748049,3.9509476 L7.37748049,8.62430323 L7.38104794,8.6296544 C7.38996656,8.69208473 7.40780379,8.75273133 7.43455964,8.80981048 C7.47380156,8.89186176 7.53088071,8.96499443 7.60222965,9.02742475 L7.69319955,9.0916388 L7.7342252,9.1219621 L7.7270903,9.11839465 L11.1839465,11.5496098 Z" id="路径"></path>
                <path d="M7.99286511,0.0160535117 C3.57814939,0.0160535117 0,3.59598662 0,8.00891862 C0,12.4236343 3.57814939,16.0017837 7.99286511,16.0017837 C9.37703456,16.0017837 10.6809365,15.6486065 11.8153846,15.0296544 C12.057971,14.922631 12.2149387,14.6818283 12.2149387,14.4160535 C12.2149387,14.0468227 11.922408,13.7489409 11.5603122,13.7489409 C11.4211817,13.7489409 11.2856187,13.793534 11.1750279,13.8755853 C10.1939799,14.3910814 9.10234114,14.6604236 7.99464883,14.6586399 C4.2613155,14.6586399 1.23433668,11.6744705 1.23433668,7.99286511 C1.23433668,4.31125975 4.2613155,1.3270903 7.99464883,1.3270903 C11.7279822,1.3270903 14.754961,4.31125975 14.754961,7.99286511 C14.7567447,9.05953177 14.4981048,10.1101449 14.0004459,11.0537347 C13.9183946,11.1661093 13.8755853,11.2998885 13.8755853,11.439019 C13.8755853,11.7939799 14.1574136,12.0829431 14.5052397,12.0829431 C14.6550725,12.0829431 14.7942029,12.0294314 14.9012263,11.9402453 C14.9600892,11.8920847 15.0100334,11.8314381 15.0492754,11.7636566 L15.07068,11.7244147 C15.6735786,10.5792642 15.9857302,9.3039019 15.9839465,8.01070234 C15.9857302,3.59598662 12.4075808,0.0160535117 7.99286511,0.0160535117 Z" id="路径"></path>
            </g>
        </g>
    </g>
</svg>