<?xml version="1.0" encoding="utf-8"?>
<!-- Generator: Adobe Illustrator 24.0.2, SVG Export Plug-In . SVG Version: 6.00 Build 0)  -->
<svg version="1.1" id="图层_1" xmlns="http://www.w3.org/2000/svg" xmlns:xlink="http://www.w3.org/1999/xlink" x="0px" y="0px"
	 viewBox="0 0 16 14" style="enable-background:new 0 0 16 14;" xml:space="preserve">
<style type="text/css">
	.st0{fill:#FFFFFF;}
</style>
<title>youhuiquan</title>
<desc>Created with Sketch.</desc>
<g id="页面-1">
	<g id="用户中心" transform="translate(-33.000000, -408.000000)">
		<g id="youhuiquan" transform="translate(33.000000, 408.000000)">
			<path id="形状" class="st0" d="M13.8,0C15,0,16,1,16,2.2V5c0,0.3-0.3,0.6-0.6,0.6C14.6,5.6,14,6.2,14,7s0.6,1.4,1.4,1.4
				C15.7,8.4,16,8.7,16,9v2.8c0,1.2-1,2.2-2.2,2.2H2.2C1,14,0,13,0,11.8V9c0-0.3,0.3-0.6,0.6-0.6C1.4,8.4,2,7.8,2,7S1.4,5.6,0.6,5.6
				C0.3,5.6,0,5.3,0,5V2.2C0,1,1,0,2.2,0H13.8z M6.4,3.6c-0.2-0.2-0.6-0.3-0.8,0l0,0c-0.2,0.2-0.3,0.6,0,0.8L6.9,6H6l0,0
				C5.6,6,5.4,6.3,5.4,6.6l0,0c0,0.3,0.3,0.6,0.6,0.6h1.5V8H6l0,0C5.6,8,5.4,8.3,5.4,8.6l0,0c0,0.3,0.3,0.6,0.6,0.6h1.5V10l0,0
				c0,0.3,0.3,0.6,0.6,0.6l0,0c0.3,0,0.6-0.3,0.6-0.6V9.2H10l0,0c0.3,0,0.6-0.3,0.6-0.6l0,0C10.6,8.2,10.3,8,10,8H8.7V7.2H10l0,0
				c0.3,0,0.6-0.3,0.6-0.6l0,0C10.6,6.2,10.3,6,10,6H9.1l1.3-1.6l0,0c0.2-0.3,0.1-0.6-0.1-0.8S9.7,3.4,9.5,3.6L8,5.5L6.4,3.6
				L6.4,3.6z"/>
		</g>
	</g>
</g>
</svg>
