<?xml version="1.0" encoding="UTF-8"?>
<svg width="16px" height="16px" viewBox="0 0 16 16" version="1.1" xmlns="http://www.w3.org/2000/svg" xmlns:xlink="http://www.w3.org/1999/xlink">
    <!-- Generator: Sketch 52 (66869) - http://www.bohemiancoding.com/sketch -->
    <title>zhuyi-3</title>
    <desc>Created with Sketch.</desc>
    <g id="页面-1" stroke="none" stroke-width="1" fill="none" fill-rule="evenodd">
        <g id="优惠券" transform="translate(-290.000000, -162.000000)">
            <g id="zhuyi-3" transform="translate(290.000000, 162.000000)">
                <path d="M0.00780487805,8 C0.0078048355,10.8553363 1.53110861,13.4937759 4.0039024,14.9214441 C6.4766962,16.3491123 9.5233038,16.3491123 11.9960976,14.9214441 C14.4688914,13.4937759 15.9921952,10.8553363 15.9921951,8 C15.9921951,3.58603252 12.4139675,0.00780487805 8,0.00780487805 C3.58603252,0.00780487805 0.00780487805,3.58603252 0.00780487805,8 Z" id="路径" fill="#F44B4B"></path>
                <path d="M8,11.632816 C8.25957604,11.6328159 8.4994342,11.7712981 8.62922222,11.9960975 C8.75901024,12.220897 8.75901024,12.4978613 8.62922222,12.7226608 C8.4994342,12.9474602 8.25957604,13.0859424 8,13.0859424 C7.59873023,13.0859424 7.27343681,12.7606489 7.27343681,12.3593792 C7.27343681,11.9581094 7.59873023,11.632816 8,11.632816 Z M8,2.91405765 C8.40126977,2.91405765 8.72656319,3.23935107 8.72656319,3.64062084 L8.72656319,9.81640798 C8.72656319,10.2176778 8.40126977,10.5429712 8,10.5429712 C7.59873023,10.5429712 7.27343681,10.2176778 7.27343681,9.81640798 L7.27343681,3.64062084 C7.27343681,3.23935107 7.59873023,2.91405765 8,2.91405765 Z" id="形状" fill="#FFFFFF" fill-rule="nonzero"></path>
            </g>
        </g>
    </g>
</svg>