<?xml version="1.0" encoding="UTF-8"?>
<svg width="24px" height="25px" viewBox="0 0 24 25" version="1.1" xmlns="http://www.w3.org/2000/svg" xmlns:xlink="http://www.w3.org/1999/xlink">
    <!-- Generator: Sketch 52 (66869) - http://www.bohemiancoding.com/sketch -->
    <title>CPU</title>
    <desc>Created with Sketch.</desc>
    <g id="页面-1" stroke="none" stroke-width="1" fill="none" fill-rule="evenodd">
        <g id="产品详情" transform="translate(-486.000000, -297.000000)">
            <g id="分组-8" transform="translate(290.000000, 248.000000)">
                <g id="CPU" transform="translate(196.000000, 49.000000)">
                    <path d="M19.6204582,21.819839 L4.47920743,21.819839 C3.41399381,21.819839 2.52631579,20.9575232 2.52631579,19.8669474 L2.52631579,4.72569659 C2.52631579,3.66048297 3.38863158,2.77280495 4.47920743,2.77280495 L19.6204582,2.77280495 C20.6856718,2.77280495 21.5733498,3.63512074 21.5733498,4.72569659 L21.5733498,19.8669474 C21.5733498,20.932161 20.6856718,21.819839 19.6204582,21.819839 Z M4.47920743,4.26917647 C4.22558514,4.26917647 4.02268731,4.4720743 4.02268731,4.72569659 L4.02268731,19.8669474 C4.02268731,20.1205697 4.22558514,20.3234675 4.47920743,20.3234675 L19.6204582,20.3234675 C19.8740805,20.3234675 20.0769783,20.1205697 20.0769783,19.8669474 L20.0769783,4.72569659 C20.0769783,4.4720743 19.8740805,4.26917647 19.6204582,4.26917647 L4.47920743,4.26917647 Z" id="形状" fill="#E7E8EC" fill-rule="nonzero"></path>
                    <path d="M16.7291641,17.3814489 L7.37050155,17.3814489 C7.26905263,17.3814489 7.16760372,17.28 7.16760372,17.1785511 L7.16760372,7.41409288 C7.16760372,7.31264396 7.26905263,7.21119505 7.37050155,7.21119505 L16.7291641,7.21119505 C16.830613,7.21119505 16.9320619,7.31264396 16.9320619,7.41409288 L16.9320619,17.2039133 C16.9320619,17.3053622 16.8559752,17.3814489 16.7291641,17.3814489 Z" id="路径" fill="#F5F6F8"></path>
                    <path d="M15.0045325,15.5807307 L9.09513313,15.5807307 C8.99368421,15.5807307 8.89223529,15.4792817 8.89223529,15.3778328 L8.89223529,9.21481115 C8.89223529,9.11336223 8.99368421,9.01191331 9.09513313,9.01191331 L15.0045325,9.01191331 C15.1059814,9.01191331 15.2074303,9.11336223 15.2074303,9.21481115 L15.2074303,15.3778328 C15.2074303,15.504644 15.1313437,15.5807307 15.0045325,15.5807307 Z M23.2218947,9.95031579 L20.7871207,9.95031579 C20.3813251,9.95031579 20.0262539,9.62060681 20.0262539,9.18944892 C20.0262539,8.75829102 20.3559628,8.42858204 20.7871207,8.42858204 L23.2218947,8.42858204 C23.6276904,8.42858204 23.9827616,8.75829102 23.9827616,9.18944892 C23.9827616,9.62060681 23.6276904,9.95031579 23.2218947,9.95031579 Z M23.2218947,13.0445077 L20.7871207,13.0445077 C20.3813251,13.0445077 20.0262539,12.7147988 20.0262539,12.2836409 C20.0262539,11.8778452 20.3559628,11.522774 20.7871207,11.522774 L23.2218947,11.522774 C23.6276904,11.522774 23.9827616,11.852483 23.9827616,12.2836409 C23.9827616,12.7147988 23.6276904,13.0445077 23.2218947,13.0445077 Z M23.2218947,16.1386997 L20.7871207,16.1386997 C20.3813251,16.1386997 20.0262539,15.8089907 20.0262539,15.3778328 C20.0262539,14.9466749 20.3559628,14.6169659 20.7871207,14.6169659 L23.2218947,14.6169659 C23.6276904,14.6169659 23.9827616,14.9466749 23.9827616,15.3778328 C23.9827616,15.8089907 23.6276904,16.1386997 23.2218947,16.1386997 Z M15.0298947,24.4067864 C14.6240991,24.4067864 14.2943901,24.0770774 14.2690279,23.6712817 L14.2690279,21.1350588 C14.2690279,20.7292632 14.5987368,20.374192 15.0045325,20.374192 C15.4103282,20.374192 15.7400372,20.7039009 15.7653994,21.1096966 L15.7653994,23.6459195 C15.7653994,24.0517152 15.4356904,24.4067864 15.0298947,24.4067864 Z M12.0625139,24.4067864 C11.6567183,24.4067864 11.3016471,24.0770774 11.3016471,23.6712817 L11.3016471,21.1350588 C11.3016471,20.7292632 11.631356,20.374192 12.0371517,20.374192 C12.4429474,20.374192 12.7980186,20.7039009 12.7980186,21.1096966 L12.7980186,23.6459195 C12.7980186,24.0770774 12.4683096,24.4067864 12.0625139,24.4067864 Z M9.09513313,24.584322 C8.68933746,24.584322 8.33426625,24.254613 8.33426625,23.8488173 L8.33426625,21.3125944 C8.33426625,20.9067988 8.66397523,20.5517276 9.0697709,20.5517276 C9.47556656,20.5517276 9.83063777,20.8814365 9.83063777,21.2872322 L9.83063777,23.8234551 C9.856,24.254613 9.50092879,24.584322 9.09513313,24.584322 Z" id="形状" fill="#E7E8EC" fill-rule="nonzero"></path>
                    <path d="M15.0298947,4.04091641 C14.6240991,4.04091641 14.2943901,3.71120743 14.2690279,3.30541176 L14.2690279,0.769188854 C14.2690279,0.363393189 14.5987368,0.00832198142 15.0045325,0.00832198142 C15.4103282,0.00832198142 15.7400372,0.33803096 15.7653994,0.743826625 L15.7653994,3.28004954 C15.7653994,3.71120743 15.4356904,4.04091641 15.0298947,4.04091641 Z M12.0625139,4.04091641 C11.6567183,4.04091641 11.3016471,3.71120743 11.3016471,3.30541176 L11.3016471,0.769188854 C11.3016471,0.363393189 11.631356,0.00832198142 12.0371517,0.00832198142 C12.4429474,0.00832198142 12.7980186,0.33803096 12.7980186,0.743826625 L12.7980186,3.28004954 C12.7980186,3.71120743 12.4683096,4.04091641 12.0625139,4.04091641 Z M9.09513313,4.24381424 C8.68933746,4.24381424 8.33426625,3.91410526 8.33426625,3.5083096 L8.33426625,0.972086687 C8.33426625,0.566291022 8.66397523,0.211219814 9.0697709,0.211219814 C9.47556656,0.211219814 9.83063777,0.540928793 9.83063777,0.946724458 L9.83063777,3.48294737 C9.856,3.88874303 9.50092879,4.24381424 9.09513313,4.24381424 Z" id="形状" fill="#E7E8EC" fill-rule="nonzero"></path>
                    <path d="M3.21109598,9.95031579 L0.776321981,9.95031579 C0.370526316,9.95031579 0.0154551084,9.62060681 0.0154551084,9.18944892 C0.0154551084,8.75829102 0.345164087,8.42858204 0.776321981,8.42858204 L3.21109598,8.42858204 C3.61689164,8.42858204 3.97196285,8.75829102 3.97196285,9.18944892 C3.97196285,9.62060681 3.61689164,9.95031579 3.21109598,9.95031579 Z M3.21109598,13.0445077 L0.776321981,13.0445077 C0.370526316,13.0445077 0.0154551084,12.7147988 0.0154551084,12.2836409 C0.0154551084,11.8778452 0.345164087,11.522774 0.776321981,11.522774 L3.21109598,11.522774 C3.61689164,11.522774 3.97196285,11.852483 3.97196285,12.2836409 C3.97196285,12.7147988 3.61689164,13.0445077 3.21109598,13.0445077 Z M3.21109598,16.1386997 L0.776321981,16.1386997 C0.370526316,16.1386997 0.0154551084,15.8089907 0.0154551084,15.3778328 C0.0154551084,14.9466749 0.345164087,14.6169659 0.776321981,14.6169659 L3.21109598,14.6169659 C3.61689164,14.6169659 3.97196285,14.9466749 3.97196285,15.3778328 C3.97196285,15.8089907 3.61689164,16.1386997 3.21109598,16.1386997 Z" id="形状" fill="#E7E8EC" fill-rule="nonzero"></path>
                </g>
            </g>
        </g>
    </g>
</svg>