<?xml version="1.0" encoding="UTF-8"?>
<svg width="16px" height="18px" viewBox="0 0 16 18" version="1.1" xmlns="http://www.w3.org/2000/svg" xmlns:xlink="http://www.w3.org/1999/xlink">
    <!-- Generator: Sketch 52 (66869) - http://www.bohemiancoding.com/sketch -->
    <title>chanpin-2</title>
    <desc>Created with Sketch.</desc>
    <g id="页面-1" stroke="none" stroke-width="1" fill="none" fill-rule="evenodd">
        <g id="我的产品" transform="translate(-1278.000000, -195.000000)" fill="#0360FF" fill-rule="nonzero">
            <g id="chanpin-2" transform="translate(1278.000000, 195.000000)">
                <path d="M7.81841658,7.75724318 C7.43874373,7.75724318 7.07620502,7.68204144 6.79553326,7.54357252 L1.20540894,4.79281134 C0.822769902,4.60445802 0.602399128,4.30222028 0.600165758,3.96423119 C0.597932388,3.62177535 0.81978626,3.31208724 1.20914286,3.11406761 L6.85806761,0.245670665 C7.15585605,0.0945517993 7.53924537,0.011917121 7.93901854,0.011917121 C8.31869138,0.011917121 8.68124755,0.0878516903 8.96190185,0.225570338 L14.5520262,2.97633152 C14.9346827,3.16468484 15.155036,3.46767285 15.1572694,3.80566194 C15.1595027,4.14811778 14.9376663,4.45780589 14.5483097,4.65509269 L8.8993675,7.52347219 C8.60159651,7.67460851 8.21818975,7.75797601 7.81768375,7.75797601 L7.81841658,7.75724318 Z M6.65706434,17.8557906 C6.46351145,17.8557906 6.26250818,17.8044231 6.0562879,17.7046718 L6.04438822,17.6979716 L1.04907306,15.0774787 C0.451280262,14.7819237 0.000889858233,14.1491472 0.000889858233,13.6034547 L0.000889858233,6.53855616 C0.000889858233,6.04349836 0.364929117,5.68392585 0.865203926,5.68392585 C1.05875682,5.68392585 1.25976009,5.73454308 1.46598037,5.83504471 L1.47788004,5.841012 L6.4731952,8.46148746 C7.070988,8.75704253 7.52137841,9.38983642 7.52137841,9.93626172 L7.52137841,17.0011603 C7.52137841,17.4962181 7.15808942,17.8557906 6.65706434,17.8557906 Z M9.34307525,17.8557906 C8.84205016,17.8557906 8.479494,17.4962181 8.479494,17.0011603 L8.479494,9.93626172 C8.479494,9.38983642 8.92915158,8.75704253 9.52694438,8.46223773 L14.5341592,5.83506216 C14.7396292,5.73456052 14.9413828,5.68392585 15.1349357,5.68392585 C15.6352105,5.68392585 15.9985169,6.04349836 15.9985169,6.53855616 L15.9985169,13.6027045 C15.9985169,14.1491472 15.5488593,14.7819237 14.9510665,15.0767285 L9.94385169,17.7046892 C9.75774172,17.8002292 9.55223953,17.851921 9.34307525,17.8558081 L9.34307525,17.8557906 Z" id="合并形状"></path>
            </g>
        </g>
    </g>
</svg>