<?xml version="1.0" encoding="UTF-8"?>
<svg width="24px" height="25px" viewBox="0 0 24 25" version="1.1" xmlns="http://www.w3.org/2000/svg" xmlns:xlink="http://www.w3.org/1999/xlink">
    <!-- Generator: Sketch 52 (66869) - http://www.bohemiancoding.com/sketch -->
    <title>yingpan</title>
    <desc>Created with Sketch.</desc>
    <g id="页面-1" stroke="none" stroke-width="1" fill="none" fill-rule="evenodd">
        <g id="产品详情" transform="translate(-982.000000, -298.000000)" fill="#E7E8EC" fill-rule="nonzero">
            <g id="yingpan" transform="translate(982.000000, 298.000000)">
                <path d="M23.8666357,20.0962413 C23.8816705,19.9419954 23.8836195,19.7863573 23.8610673,19.6304408 L21.2787007,1.65382831 C21.1436659,0.713039443 20.335406,0.00361948956 19.3985151,0.00361948956 L4.29661253,0.00361948956 C3.33661253,0.00361948956 2.52612529,0.733085847 2.41058005,1.70032483 L0.267285383,19.6774942 C0.266728538,19.6813921 0.267563805,19.68529 0.267285383,19.6891879 C0.109141531,20.1043155 0.0189327146,20.552297 0.0189327146,21.0222738 C0.0189327146,23.0959629 1.70617169,24.7832019 3.78013921,24.7832019 L20.2257077,24.7832019 C22.2996752,24.7832019 23.9866357,23.0959629 23.9866357,21.0222738 C23.9866357,20.7020882 23.9420882,20.3930394 23.8666357,20.0962413 Z M4.20306265,1.91415313 C4.21085847,1.84816705 4.25679814,1.80863109 4.29689095,1.80863109 L19.3987935,1.80863109 C19.4433411,1.80863109 19.4837123,1.85234339 19.492065,1.91053364 L21.7436659,17.5832019 C21.2789791,17.3771694 20.7661253,17.2605104 20.2259861,17.2605104 L3.78013921,17.2605104 C3.26979118,17.2605104 2.78310905,17.3638051 2.3387471,17.5486775 L4.20306265,1.91415313 Z M20.2257077,22.9779118 L3.78013921,22.9779118 C2.70153132,22.9779118 1.82394432,22.1006032 1.82394432,21.0219954 C1.82394432,19.9433875 2.70153132,19.0658005 3.78013921,19.0658005 L20.2257077,19.0658005 C21.3043155,19.0658005 22.1816241,19.9433875 22.1816241,21.0219954 C22.1816241,22.1006032 21.3043155,22.9779118 20.2257077,22.9779118 Z" id="形状"></path>
                <path d="M20.8499304,20.1716937 L18.4218097,20.1716937 C17.9234339,20.1716937 17.5191647,20.5756845 17.5191647,21.0743387 C17.5191647,21.572993 17.9231555,21.9769838 18.4218097,21.9769838 L20.8499304,21.9769838 C21.3483063,21.9769838 21.7525754,21.572993 21.7525754,21.0743387 C21.7525754,20.5756845 21.3483063,20.1716937 20.8499304,20.1716937 Z M9.12194896,13.5207425 L15.0531787,13.5207425 C16.4113225,13.5207425 17.5163805,12.4156845 17.5163805,11.0575406 L17.5163805,10.7771694 C17.5163805,9.60612529 16.6933643,8.627471 15.5966589,8.37856148 C15.3271462,6.612529 13.8025058,5.25382831 11.962413,5.25382831 C10.0939211,5.25382831 8.54979118,6.65429234 8.31563805,8.46013921 C7.35424594,8.79591647 6.65819026,9.70218097 6.65819026,10.7771694 L6.65819026,11.0575406 C6.65846868,12.4156845 7.76352668,13.5207425 9.12194896,13.5207425 Z M11.9626914,7.05911833 C12.9967517,7.05911833 13.8384223,7.90051044 13.8384223,8.93484919 L13.8431555,8.93484919 C13.8136427,9.02394432 13.7938747,9.1174942 13.7938747,9.21633411 C13.7938747,9.7149884 14.1978654,10.1189791 14.6965197,10.1189791 L15.0531787,10.1189791 C15.4159629,10.1189791 15.7113689,10.4143852 15.7113689,10.7774478 L15.7113689,11.057819 C15.7113689,11.4206032 15.4159629,11.7160093 15.0531787,11.7160093 L9.12194896,11.7160093 C8.75916473,11.7160093 8.4637587,11.4206032 8.4637587,11.057819 L8.4637587,10.7774478 C8.4637587,10.4143852 8.75916473,10.1189791 9.12194896,10.1189791 L9.23526682,10.1189791 C9.73392111,10.1189791 10.1379118,9.7149884 10.1379118,9.21633411 C10.1379118,9.11582367 10.117587,9.02116009 10.0875174,8.93095128 C10.0894664,7.89828306 10.9297448,7.05911833 11.9626914,7.05911833 Z" id="形状"></path>
            </g>
        </g>
    </g>
</svg>