<?xml version="1.0" encoding="utf-8"?>
<!-- Generator: Adobe Illustrator 24.0.2, SVG Export Plug-In . SVG Version: 6.00 Build 0)  -->
<svg version="1.1" id="图层_1" xmlns="http://www.w3.org/2000/svg" xmlns:xlink="http://www.w3.org/1999/xlink" x="0px" y="0px"
	 viewBox="0 0 18 19.7" style="enable-background:new 0 0 18 19.7;" xml:space="preserve">
<style type="text/css">
	.st0{fill:#FFFFFF;}
</style>
<title>guanggaozhuhuodongtuiguang</title>
<desc>Created with Sketch.</desc>
<g id="页面-1">
	<g id="用户中心" transform="translate(-32.000000, -360.000000)">
		<g id="guanggaozhuhuodongtuiguang" transform="translate(32.000000, 360.000000)">
			<path id="形状" class="st0" d="M8.4,16.8c0,0.5,0.1,0.9,0.3,1.2c0.2,0.3,0.5,0.5,0.8,0.6c-0.4,0-0.8,0-1.1,0.1
				c-0.3,0-0.7,0-1,0c-0.4,0-0.8,0-1.3,0c-0.5,0-1-0.1-1.5-0.1s-1-0.1-1.5-0.1c-0.5-0.1-1-0.1-1.4-0.2c-0.4-0.1-0.8-0.1-1-0.2
				S0.4,18,0.3,17.9C0.2,17.8,0.1,17.5,0,17c-0.1-0.5,0-1.2,0.1-2c0-0.3,0.2-0.6,0.3-0.8C0.6,14,0.8,13.9,1,13.7s0.5-0.3,0.7-0.3
				s0.6-0.2,0.8-0.3c0.3-0.1,0.6-0.2,0.8-0.3c0.3-0.1,0.5-0.2,0.7-0.3c0.3-0.2,0.5-0.3,0.6-0.5c0.1-0.1,0.2-0.3,0.3-0.4
				c0.1-0.1,0.1-0.3,0.1-0.5c0-0.2,0-0.3,0-0.5c0-0.3-0.1-0.5-0.3-0.7C4.7,9.7,4.5,9.5,4.3,9.4C4.2,9.3,4.1,9.2,4,9
				C3.9,8.9,3.9,8.7,3.8,8.5C3.7,8.3,3.7,8.1,3.6,7.9c-0.1,0-0.2-0.1-0.3-0.1C3.3,7.7,3.2,7.7,3.1,7.5C3,7.4,2.9,7.3,2.9,7.1
				C2.8,6.8,2.8,6.6,2.8,6.5c0-0.2,0.1-0.3,0.1-0.4C3,5.9,3,5.8,3.1,5.6c0-0.5,0-0.9,0.1-1.4c0.1-0.4,0.2-0.8,0.3-1.3
				C3.6,2.5,3.8,2,4.1,1.7c0.2-0.3,0.5-0.6,0.8-0.9s0.6-0.4,0.9-0.5s0.6-0.2,0.9-0.3S7.3,0,7.6,0c0.4,0,0.7,0,1.1,0.1s0.7,0.2,1,0.3
				s0.6,0.3,0.8,0.5s0.4,0.3,0.6,0.5c0.3,0.4,0.5,0.8,0.7,1.3s0.3,0.9,0.3,1.4c0.1,0.5,0.1,1,0.1,1.5c0.1,0.1,0.2,0.1,0.2,0.2
				c0,0.1,0.1,0.2,0.1,0.3c0,0.1,0,0.3,0,0.5c0,0.3-0.1,0.5-0.2,0.6c-0.1,0.2-0.2,0.3-0.3,0.4c-0.1,0.1-0.2,0.2-0.4,0.2
				c-0.1,0.2-0.1,0.4-0.2,0.6c-0.1,0.2-0.1,0.3-0.2,0.5c-0.1,0.2-0.2,0.3-0.3,0.4c-0.1,0.1-0.2,0.2-0.3,0.3
				c-0.1,0.1-0.2,0.1-0.3,0.2c-0.1,0.1-0.1,0.2-0.2,0.3c0,0.1-0.1,0.2-0.1,0.4c0,0.2,0,0.4,0,0.6c0,0.2,0.1,0.4,0.1,0.6
				c0.1,0.2,0.2,0.4,0.4,0.6s0.5,0.3,0.8,0.5c0.1,0,0.1,0,0.2,0.1v0.7V14c-0.1,0-0.2,0-0.3,0h-1.3c-1.1,0-1.7,0.5-1.7,1.4V16.8z
				 M17.7,15.7c0.2,0.1,0.3,0.3,0.3,0.6c0,0.2-0.1,0.4-0.2,0.5c-0.2,0.2-0.5,0.4-0.8,0.6c-0.3,0.2-0.7,0.4-1.1,0.7
				c-0.4,0.2-0.7,0.5-1.1,0.7c-0.4,0.2-0.6,0.4-0.9,0.6c-0.3,0.2-0.5,0.4-0.6,0.4c-0.1,0-0.2-0.2-0.2-0.5v-0.9
				c0-0.2-0.1-0.4-0.2-0.5c-0.1-0.1-0.3-0.2-0.4-0.2h-2.2c-0.2,0-0.3,0-0.5-0.1c-0.1-0.1-0.2-0.3-0.2-0.5V16c0-0.4,0.1-0.6,0.2-0.7
				c0.1-0.1,0.3-0.1,0.6-0.1c0.1,0,0.3,0,0.4,0c0.1,0,0.2,0,0.3,0c0.1,0,0.3,0,0.5,0c0.2,0,0.5,0,0.8,0c0.3,0,0.5-0.1,0.6-0.3
				c0.1-0.2,0.2-0.4,0.2-0.6v-0.9c0-0.2,0.1-0.4,0.2-0.5c0.1-0.1,0.3,0,0.5,0.2s0.5,0.4,0.9,0.6s0.7,0.5,1.1,0.7
				c0.4,0.2,0.8,0.5,1.1,0.7C17.2,15.3,17.5,15.5,17.7,15.7z"/>
		</g>
	</g>
</g>
</svg>
