<?xml version="1.0" encoding="UTF-8"?>
<svg width="16px" height="7px" viewBox="0 0 16 7" version="1.1" xmlns="http://www.w3.org/2000/svg" xmlns:xlink="http://www.w3.org/1999/xlink">
    <!-- Generator: Sketch 52 (66869) - http://www.bohemiancoding.com/sketch -->
    <title>yanjing-biyan</title>
    <desc>Created with Sketch.</desc>
    <g id="页面-1" stroke="none" stroke-width="1" fill="none" fill-rule="evenodd">
        <g id="产品详情" transform="translate(-765.000000, -670.000000)" fill="#0360FF">
            <g id="yanjing-biyan" transform="translate(765.000000, 670.000000)">
                <path d="M14.0375647,2.18932845 L15.3979573,3.54972098 C15.5572234,3.70898709 15.6194239,3.94112252 15.5611284,4.15868408 C15.502833,4.37624564 15.3328981,4.54618057 15.1153365,4.60447601 C14.8977749,4.66277146 14.6656395,4.60057095 14.5063734,4.44130483 L12.8506267,2.78555814 C12.8035898,2.73852127 12.7650193,2.68512854 12.7355187,2.62763247 C12.0754666,2.80804913 11.3490813,2.95181036 10.574232,3.05168641 C10.5759872,3.05977407 10.5775863,3.06791078 10.5790269,3.07609259 L10.9856298,5.38211335 C11.0378841,5.72107278 10.8096459,6.03964196 10.4718896,6.09917917 C10.1341333,6.15871638 9.81072583,5.93738725 9.7439333,5.60099051 L9.33733038,3.29496976 C9.33005194,3.25372735 9.32695276,3.21218389 9.32790295,3.1709254 C8.89534331,3.19847349 8.45189662,3.21277729 8.00018164,3.21277729 C7.61005547,3.21277729 7.22609664,3.2021092 6.84999213,3.18145519 C6.85097949,3.21877703 6.84865239,3.25669863 6.84276647,3.29487894 L6.43616355,5.60089969 C6.37572229,5.94378471 6.04876174,6.17275062 5.70587672,6.11230936 C5.3629917,6.0518681 5.13402579,5.72490755 5.19446705,5.38202253 L5.60106998,3.07600177 C5.60123821,3.07515448 5.60140807,3.07430792 5.60157955,3.0734621 C4.82211783,2.98053379 4.0894687,2.84347007 3.42132573,2.66942572 C3.39594056,2.7107427 3.36535231,2.74976681 3.32956098,2.78555814 L1.67381428,4.44130483 C1.51454816,4.60057096 1.28241274,4.66277146 1.06485117,4.60447602 C0.847289605,4.54618058 0.677354677,4.37624565 0.619059234,4.15868408 C0.56076379,3.94112252 0.622964296,3.70898709 0.782230421,3.54972098 L2.09097116,2.24098024 C1.29718487,1.92806306 0.654877502,1.55263003 0.212695698,1.13435246 C-0.213251973,0.73138235 0.0695627494,0.0155359645 0.655899246,0.0155359645 C0.830910155,0.0155359645 0.99584,0.088918847 1.12026395,0.212071308 C1.37020169,0.459466075 1.8199443,0.76089898 2.53678971,1.05070687 C3.95331548,1.62342031 5.94473437,1.95182687 8.00009082,1.95182687 C10.0554473,1.95182687 12.0467753,1.62342031 13.4633919,1.05070687 C14.1802373,0.76089898 14.62998,0.459466075 14.8799177,0.212071308 C15.0042508,0.088918847 15.1692715,0.0154451441 15.3442824,0.0154451441 C15.9305281,0.0154451441 16.2134336,0.73129153 15.7876676,1.13435246 C15.3695366,1.52985004 14.772458,1.88705608 14.0375647,2.18932845 Z" id="合并形状"></path>
            </g>
        </g>
    </g>
</svg>