<?xml version="1.0" encoding="UTF-8"?>
<svg width="24px" height="24px" viewBox="0 0 24 24" version="1.1" xmlns="http://www.w3.org/2000/svg" xmlns:xlink="http://www.w3.org/1999/xlink">
    <!-- Generator: Sketch 52 (66869) - http://www.bohemiancoding.com/sketch -->
    <title>wangzhi</title>
    <desc>Created with Sketch.</desc>
    <g id="页面-1" stroke="none" stroke-width="1" fill="none" fill-rule="evenodd">
        <g id="产品详情" transform="translate(-1354.000000, -296.000000)" fill="#E7E8EC" fill-rule="nonzero">
            <g id="wangzhi" transform="translate(1354.000000, 296.000000)">
                <path d="M12,24 C5.372583,24 8.11624501e-16,18.627417 0,12 C-8.11624501e-16,5.372583 5.372583,1.21743675e-15 12,0 C18.627417,4.05812251e-16 24,5.372583 24,12 C24,18.627417 18.627417,24 12,24 Z M9.42514287,1.83085713 C7.4763063,2.32477576 5.70994378,3.36710218 4.33542858,4.83428571 C5.59853959,5.23025163 6.8912051,5.52489912 8.20114287,5.71542858 C8.51657145,4.34228571 8.92457145,3.03771429 9.42514287,1.83085713 Z M7.908,7.19485713 C6.34430258,6.97806773 4.80324865,6.62120416 3.30342858,6.12857142 C2.27012667,7.64940176 1.65795195,9.41672356 1.52914287,11.2508571 L7.53257142,11.2508571 C7.57028571,9.85542855 7.68685713,8.49428571 7.90971429,7.19485713 L7.908,7.19485713 Z M7.53085713,12.7491429 L1.53085713,12.7491429 C1.65966623,14.5832764 2.27184095,16.3505982 3.30514287,17.8714286 C4.80496294,17.3787958 6.34601687,17.0219323 7.90971429,16.8051429 C7.68850905,15.4637283 7.56248016,14.1083449 7.53257142,12.7491429 L7.53085713,12.7491429 Z M14.268,5.91428571 C13.9075732,4.40556961 13.3916715,2.93829455 12.7285714,1.536 C12.4868571,1.51885713 12.2451429,1.5 12,1.5 C11.7548571,1.5 11.5131429,1.52057142 11.2714286,1.536 C10.6089281,2.938366 10.093602,4.40563792 9.73371429,5.91428571 C10.4794286,5.97942858 11.2354286,6.01714284 12,6.01714287 C12.7645714,6.01714287 13.5205714,5.97942858 14.2662857,5.91428571 L14.268,5.91428571 Z M14.58,7.38171429 C13.7365714,7.45714287 12.8777143,7.5 12.0017143,7.5 C11.1409707,7.49824483 10.2807172,7.45877842 9.42342858,7.38171429 C9.19860406,8.66004859 9.06910448,9.95332534 9.036,11.2508571 L14.9674286,11.2508571 C14.9342988,9.95332693 14.8047995,8.66005204 14.58,7.38171429 Z M19.6662857,4.83428571 C18.2917705,3.36710218 16.525408,2.32477576 14.5765714,1.83085713 C15.0771428,3.03771427 15.4851428,4.34228571 15.8005714,5.71542858 C17.148,5.51657145 18.4405714,5.22171429 19.6662857,4.83428571 Z M9.42171429,16.6182857 C10.2651429,16.5428571 11.124,16.5 12,16.5 C12.876,16.5 13.7348571,16.5428571 14.5782857,16.6182857 C14.8045714,15.3702857 14.9245714,14.0708571 14.9657143,12.7491429 L9.03428571,12.7491429 C9.07542858,14.0691429 9.19542858,15.3702857 9.42171429,16.6182857 Z M16.4674286,11.2508571 L22.4708571,11.2508571 C22.342048,9.41672356 21.7298733,7.64940176 20.6965714,6.12857142 C19.1967563,6.62122199 17.6557008,6.97808593 16.092,7.19485713 C16.3131429,8.49428571 16.4297143,9.85542855 16.4674286,11.2508571 Z M16.0902857,16.8051429 C17.6545659,17.0218132 19.1961996,17.3786782 20.6965714,17.8714286 C21.7298733,16.3505982 22.342048,14.5832764 22.4708571,12.7491429 L16.4674286,12.7491429 C16.4297143,14.1445714 16.3131429,15.5057143 16.0902857,16.8051429 Z M14.5748571,22.1691429 C16.5236937,21.6752242 18.2900562,20.6328978 19.6645714,19.1657143 C18.4014661,18.7697273 17.1087989,18.4750794 15.7988571,18.2845714 C15.4998225,19.6112756 15.0903967,20.9106578 14.5748571,22.1691429 Z M4.33714287,19.1657143 C5.71165806,20.6328978 7.47802058,21.6752242 9.42685713,22.1691429 C8.91131003,20.9106605 8.50188402,19.6112777 8.20285713,18.2845714 C6.85542855,18.4834286 5.56285713,18.7782857 4.33714287,19.1657143 Z M9.73542858,18.0857143 C10.1194286,19.6542857 10.6354286,21.1337143 11.2731429,22.464 C11.5148572,22.4811429 11.7565714,22.5 12.0017143,22.5 C12.2468572,22.5 12.4885714,22.4794286 12.7302857,22.464 C13.368,21.1337143 13.884,19.6542857 14.268,18.0857143 C13.5222857,18.0205714 12.7662857,17.9828572 12.0017143,17.9828571 C11.2371429,17.9828571 10.4811429,18.0205714 9.73542858,18.0857143 Z" id="形状"></path>
            </g>
        </g>
    </g>
</svg>