<?xml version="1.0" encoding="UTF-8"?>
<svg width="72px" height="72px" viewBox="0 0 72 72" version="1.1" xmlns="http://www.w3.org/2000/svg" xmlns:xlink="http://www.w3.org/1999/xlink">
    <!-- Generator: Sketch 52 (66869) - http://www.bohemiancoding.com/sketch -->
    <title>分组 3</title>
    <desc>Created with Sketch.</desc>
    <g id="页面-1" stroke="none" stroke-width="1" fill="none" fill-rule="evenodd">
        <g id="用户推广" transform="translate(-290.000000, -151.000000)" fill="#0360FF">
            <g id="分组-3" transform="translate(290.000000, 151.000000)">
                <rect id="矩形" fill-rule="nonzero" opacity="0.122140067" x="0" y="0" width="72" height="72" rx="10"></rect>
                <g id="jine" transform="translate(21.000000, 14.103896)">
                    <path d="M28.0925278,24.4763111 L16.8684613,24.4763111 L16.8684613,16.7664148 L28.0892031,16.7664148 C29.0267584,16.7664148 29.9609891,15.8022621 29.9609891,14.8381095 C29.9739407,13.7903536 29.1369106,12.9295358 28.0892031,12.9131289 L19.4882967,12.9131289 L28.8405773,3.27825195 C29.2003489,2.92120581 29.4026972,2.43530862 29.4026972,1.92843826 C29.4026972,1.4215679 29.2003489,0.935670705 28.8405773,0.578624571 C28.5047853,0.210055209 28.0292572,3.32229975e-06 27.5306595,3.32229975e-06 C27.0320619,3.32229975e-06 26.5565338,0.210055209 26.2207418,0.578624571 L15,12.1418068 L3.77925818,0.578624571 C3.44353276,0.211156896 2.96874175,0.00182539012 2.47100281,0.00182539012 C1.97326387,0.00182539012 1.49847286,0.211156896 1.16274744,0.578624571 C0.802975823,0.935670705 0.600627537,1.4215679 0.600627537,1.92843826 C0.600627537,2.43530862 0.802975823,2.92120581 1.16274744,3.27825195 L10.5117033,12.9131289 L1.9107969,12.9131289 C0.861774438,12.9295321 0.0242092222,13.7923879 0.0390109091,14.8414342 C0.0390109091,15.8055868 0.973241571,16.7697394 1.9107969,16.7697394 L13.1315387,16.7697394 L13.1315387,24.4763111 L1.90747219,24.4763111 C0.976566195,24.4763111 0.0390109091,25.4404638 0.0390109091,26.4046164 C0.0390109091,27.3687691 0.973241571,28.3329217 1.9107969,28.3329217 L13.1315387,28.3329217 L13.1315387,37.9677986 C13.1315387,38.9319513 14.0624447,39.8961039 15,39.8961039 C15.9342307,39.8961039 16.871786,38.9319513 16.871786,37.9677986 L16.871786,28.3329217 L28.0925278,28.3329217 C29.0234338,28.3329217 29.9609891,27.368769 29.9609891,26.4046164 C29.9609891,25.4404638 29.0267584,24.4763112 28.0892031,24.4763111 L28.0925278,24.4763111 Z" id="路径"></path>
                </g>
            </g>
        </g>
    </g>
</svg>