<?xml version="1.0" encoding="utf-8"?>
<!-- Generator: Adobe Illustrator 24.0.2, SVG Export Plug-In . SVG Version: 6.00 Build 0)  -->
<svg version="1.1" id="图层_1" xmlns="http://www.w3.org/2000/svg" xmlns:xlink="http://www.w3.org/1999/xlink" x="0px" y="0px"
	 viewBox="0 0 16 18.7" style="enable-background:new 0 0 16 18.7;" xml:space="preserve">
<style type="text/css">
	.st0{fill-rule:evenodd;clip-rule:evenodd;fill:#A3A5AA;}
	.st1{fill:#A3A5AA;}
</style>
<title>xiaoxi-5</title>
<desc>Created with Sketch.</desc>
<g id="页面-1">
	<g id="用户中心" transform="translate(-1324.000000, -23.000000)">
		<g id="xiaoxi-5" transform="translate(1324.000000, 23.000000)">
			<path id="路径" class="st0" d="M7.7,2c3.7,0,6.7,3,6.7,6.7v6.7H13V8.7c0-2.9-2.4-5.3-5.3-5.3S2.3,5.7,2.3,8.7v6.7H1V8.7
				C1,5,4,2,7.7,2z"/>
			<path id="路径_1_" class="st0" d="M0.7,15h14.7c0.4,0,0.7,0.2,0.7,0.7c0,0.4-0.2,0.7-0.7,0.7H0.7c-0.4,0-0.7-0.2-0.7-0.7
				C0,15.2,0.2,15,0.7,15z"/>
			<path id="形状" class="st1" d="M7.7,0C8,0,8.3,0.3,8.3,0.7V2c0,0.4-0.3,0.7-0.7,0.7S7,2.4,7,2V0.7C7,0.3,7.3,0,7.7,0z
				 M7.7,18.7c1.4,0,2.6-1.1,2.7-2.5l0-0.2H9l0,0.2c-0.1,0.7-0.7,1.2-1.4,1.2S6.3,16.7,6.3,16H5C5,17.5,6.2,18.7,7.7,18.7z"/>
		</g>
	</g>
</g>
</svg>
