<?xml version="1.0" encoding="UTF-8"?>
<svg width="76px" height="76px" viewBox="0 0 76 76" version="1.1" xmlns="http://www.w3.org/2000/svg" xmlns:xlink="http://www.w3.org/1999/xlink">
    <!-- Generator: Sketch 52 (66869) - http://www.bohemiancoding.com/sketch -->
    <title>分组 3 copy 3</title>
    <desc>Created with Sketch.</desc>
    <g id="页面-1" stroke="none" stroke-width="1" fill="none" fill-rule="evenodd">
        <g id="用户中心-空状态" transform="translate(-1098.000000, -655.000000)">
            <g id="分组-3-copy-3" transform="translate(1099.000000, 656.000000)">
                <g id="gonggaozhongxin" transform="translate(17.000000, 17.000000)" fill="#CCD1D9">
                    <path d="M25.9401593,7.97826698 C25.8309117,7.82106758 25.7078526,7.67393176 25.5724465,7.53861044 L22.1806963,4.14686028 C21.5810437,3.5471767 20.7677216,3.21027538 19.9196628,3.21027538 C19.071604,3.21027538 18.2582819,3.5471767 17.6586292,4.14686028 L14.266879,7.5378111 C14.1213927,7.68409681 13.9902951,7.84237316 13.8767837,8.01024201 L25.9401593,7.97826698 Z M12.0062451,5.27637785 L15.3979953,1.88542703 C17.8953349,-0.611599805 21.9439906,-0.611599805 24.4413302,1.88542703 L27.8338798,5.27717719 C28.7585973,6.20056082 29.3774917,7.38561249 29.6068946,8.67212492 L32.3791288,11.1589821 L7.7319844,11.2245308 L10.2164434,8.77524436 C10.4302164,7.44997795 11.056525,6.22589298 12.0062451,5.27717719 L12.0062451,5.27637785 Z" id="形状" fill-rule="nonzero"></path>
                    <path d="M3.21311475,13.0766838 L3.21311475,33.8604465 C3.21311475,34.742957 3.92935518,35.4591975 4.8134645,35.4591975 L35.1865355,35.4591975 C35.6108276,35.4596218 36.017887,35.2913698 36.3180568,34.9914998 C36.6182267,34.6916298 36.7868855,34.2847388 36.7868852,33.8604465 L36.7868852,13.0766838 C36.7868852,12.1941733 36.0706448,11.4779329 35.1865355,11.4779329 L4.8134645,11.4779329 C4.38917244,11.4775086 3.98211302,11.6457606 3.68194318,11.9456306 C3.38177334,12.2455005 3.21311454,12.6523916 3.21311475,13.0766838 Z M0.0156127869,13.0766838 C0.0156127162,11.8043614 0.521150231,10.5841734 1.42096795,9.68465549 C2.32078567,8.78513761 3.54114215,8.2800068 4.8134645,8.28043091 L35.1865355,8.28043091 C37.8356916,8.28043074 39.9835045,10.4275279 39.9843872,13.0766838 L39.9843872,33.8604465 C39.9843873,35.1327689 39.4788498,36.352957 38.579032,37.2524749 C37.6792143,38.1519927 36.4588579,38.6571236 35.1865355,38.6566994 L4.8134645,38.6566994 C2.16430839,38.6566996 0.016495536,36.5096025 0.0156127869,33.8604465 L0.0156127869,13.0766838 Z" id="形状" fill-rule="nonzero"></path>
                    <path d="M8.00936768,18.6723123 L23.9968774,18.6723123 C25.0627114,18.6723123 25.5956284,19.2052293 25.5956284,20.2710632 C25.5956284,21.3368972 25.0627114,21.8698142 23.9968774,21.8698142 L8.00936768,21.8698142 C6.94353371,21.8698142 6.41061672,21.3368972 6.41061672,20.2710632 C6.41061672,19.2052293 6.94353371,18.6723123 8.00936768,18.6723123 Z" id="路径"></path>
                    <path d="M8.00936768,25.0673162 L12.8056206,25.0673162 C13.8714546,25.0673162 14.4043716,25.6002331 14.4043716,26.6660671 C14.4043716,27.7319011 13.8714546,28.2648181 12.8056206,28.2648181 L8.00936768,28.2648181 C6.94353371,28.2648181 6.41061672,27.7319011 6.41061672,26.6660671 C6.41061672,25.6002331 6.94353371,25.0673162 8.00936768,25.0673162 Z" id="路径"></path>
                </g>
                <circle id="椭圆形" stroke="#CCD1D9" fill-rule="nonzero" cx="37" cy="37" r="37"></circle>
            </g>
        </g>
    </g>
</svg>