<?xml version="1.0" encoding="UTF-8"?>
<svg width="16px" height="16px" viewBox="0 0 16 16" version="1.1" xmlns="http://www.w3.org/2000/svg" xmlns:xlink="http://www.w3.org/1999/xlink">
    <!-- Generator: Sketch 52 (66869) - http://www.bohemiancoding.com/sketch -->
    <title>yonghuzhongxin</title>
    <desc>Created with Sketch.</desc>
    <g id="页面-1" stroke="none" stroke-width="1" fill="none" fill-rule="evenodd">
        <g id="用户中心" transform="translate(-33.000000, -222.000000)" fill="#FFFFFF" fill-rule="nonzero">
            <g id="yonghuzhongxin" transform="translate(33.000000, 222.000000)">
                <path d="M10.2497391,8.32695652 C11.9805217,8.8653913 13.3662609,9.82678261 14.4041739,11.2111304 C15.442087,12.5954783 15.9749565,14.1926957 16,16 L0,16 C0.0250434783,14.1913043 0.556521739,12.5954783 1.59582609,11.2111304 C2.63513043,9.82678261 4.01947826,8.8653913 5.75026087,8.32695652 L8,11.6925217 L10.2497391,8.32695652 Z M12,4 C11.9749565,5.12695652 11.5826087,6.07026087 10.8271304,6.82713043 C10.0702609,7.584 9.12834783,7.97495652 8,8 C6.87304348,7.97495652 5.92973913,7.5826087 5.17286957,6.82713043 C4.416,6.07026087 4.02504348,5.12834783 4,4 C4.02504348,2.87304348 4.4173913,1.92973913 5.17286957,1.17286957 C5.92973913,0.417391304 6.87304348,0.0250434783 8,0 C9.12695652,0.0250434783 10.0702609,0.417391304 10.8271304,1.17286957 C11.584,1.92973913 11.9749565,2.87165217 12,4 Z" id="形状"></path>
            </g>
        </g>
    </g>
</svg>