<?xml version="1.0" encoding="utf-8"?>
<!-- Generator: Adobe Illustrator 24.0.2, SVG Export Plug-In . SVG Version: 6.00 Build 0)  -->
<svg version="1.1" id="图层_1" xmlns="http://www.w3.org/2000/svg" xmlns:xlink="http://www.w3.org/1999/xlink" x="0px" y="0px"
	 viewBox="0 0 16 16" style="enable-background:new 0 0 16 16;" xml:space="preserve">
<style type="text/css">
	.st0{fill:#7C848E;}
</style>
<title>yonghuzhongxin</title>
<desc>Created with Sketch.</desc>
<g id="页面-1">
	<g id="用户中心" transform="translate(-33.000000, -222.000000)">
		<g id="yonghuzhongxin" transform="translate(33.000000, 222.000000)">
			<path id="形状" class="st0" d="M10.2,8.3c1.7,0.5,3.1,1.5,4.2,2.9s1.6,3,1.6,4.8H0c0-1.8,0.6-3.4,1.6-4.8S4,8.9,5.8,8.3L8,11.7
				L10.2,8.3z M12,4c0,1.1-0.4,2.1-1.2,2.8C10.1,7.6,9.1,8,8,8C6.9,8,5.9,7.6,5.2,6.8C4.4,6.1,4,5.1,4,4c0-1.1,0.4-2.1,1.2-2.8
				C5.9,0.4,6.9,0,8,0c1.1,0,2.1,0.4,2.8,1.2C11.6,1.9,12,2.9,12,4z"/>
		</g>
	</g>
</g>
</svg>
