<?xml version="1.0" encoding="UTF-8"?>
<svg width="76px" height="76px" viewBox="0 0 76 76" version="1.1" xmlns="http://www.w3.org/2000/svg" xmlns:xlink="http://www.w3.org/1999/xlink">
    <!-- Generator: Sketch 52 (66869) - http://www.bohemiancoding.com/sketch -->
    <title>分组 3</title>
    <desc>Created with Sketch.</desc>
    <g id="页面-1" stroke="none" stroke-width="1" fill="none" fill-rule="evenodd">
        <g id="用户中心-空状态" transform="translate(-506.000000, -379.000000)">
            <g id="分组-3" transform="translate(507.000000, 380.000000)">
                <g id="31gouwuche" transform="translate(17.000000, 17.000000)" fill="#CCD1D9">
                    <path d="M35.6722153,30.0476533 C36.4216573,30.0476533 37.03134,30.6572877 37.0312433,31.405328 C37.0312433,32.1547216 36.421609,32.7644043 35.672167,32.7644043 L12.466917,32.7644043 C10.4426796,32.7644043 8.66364907,31.1628274 8.4156876,29.1173265 L5.99275948,12.0560697 L4.61449771,4.08786097 C4.52548094,3.36992774 3.88018191,2.76299962 3.20472732,2.76299962 L1.3846196,2.76299962 C0.635226021,2.76299962 0.0255433294,2.15331693 0.0255433294,1.40392335 C0.0255433294,0.654529776 0.635177662,0.0448470838 1.3846196,0.0448470838 L3.20472732,0.0448470838 C5.25361105,0.0448470838 7.05318017,1.6464723 7.30321965,3.69467948 L8.67877516,11.6341341 L11.1113202,28.7639174 C11.1948761,29.4599106 11.8155288,30.0476533 12.4669653,30.0476533 L35.6722153,30.0476533 Z M38.8932015,5.58534342 C39.7138762,6.51151405 40.0906268,7.8198962 39.9276228,9.17070867 L37.6752376,22.0505455 C37.4313839,24.0521662 35.6557845,25.6208814 33.628116,25.6208814 L14.352845,27.0457295 C14.3192583,27.0484841 14.284995,27.0498373 14.2528098,27.0498373 C13.54517,27.0498373 12.9505651,26.4963579 12.8991944,25.7893947 C12.8725183,25.4277218 12.9882595,25.0769706 13.2259758,24.8029613 C13.4630156,24.527599 13.7918267,24.3631934 14.1534996,24.3371456 L33.529434,22.9081897 C34.2500735,22.904082 34.9049895,22.3382311 34.9885454,21.6518548 L37.239529,8.77201799 C37.3011932,8.26101728 37.1518654,7.71710649 36.8586706,7.38554078 C36.6614033,7.16222564 36.4134418,7.04851424 36.1216002,7.04851424 L11.3853294,7.04851424 C10.6359359,7.04851424 10.0262532,6.43883155 10.0262532,5.68943797 C10.0262532,4.94004439 10.6358875,4.3303617 11.3853294,4.3303617 L36.1216002,4.33036165 C37.1929909,4.33036165 38.1780229,4.77563882 38.8932015,5.58534342 Z M12.836902,39.9078791 C11.3003721,39.9078791 10.049498,38.6570533 10.0495464,37.1212 C10.0495464,35.5839935 11.3004204,34.3331195 12.836902,34.3331195 C14.3733835,34.3331195 15.6242576,35.5839935 15.6242576,37.1212 C15.6242576,38.657005 14.3734319,39.9078791 12.836902,39.9078791 Z M32.8389499,39.9078791 C31.3017435,39.9078791 30.0509177,38.6570533 30.0509178,37.1212 C30.0509178,35.5839935 31.3017435,34.3331195 32.8389499,34.3331195 C34.3747549,34.3331195 35.625629,35.5839935 35.625629,37.1212 C35.625629,38.657005 34.3748033,39.9078791 32.8389499,39.9078791 Z" id="合并形状"></path>
                </g>
                <circle id="椭圆形" stroke="#CCD1D9" fill-rule="nonzero" cx="37" cy="37" r="37"></circle>
            </g>
        </g>
    </g>
</svg>