<?xml version="1.0" encoding="utf-8"?>
<!-- Generator: Adobe Illustrator 24.0.2, SVG Export Plug-In . SVG Version: 6.00 Build 0)  -->
<svg version="1.1" id="图层_1" xmlns="http://www.w3.org/2000/svg" xmlns:xlink="http://www.w3.org/1999/xlink" x="0px" y="0px"
	 viewBox="0 0 16 16.8" style="enable-background:new 0 0 16 16.8;" xml:space="preserve">
<style type="text/css">
	.st0{fill:#7C848E;}
</style>
<title>wodechanpin</title>
<desc>Created with Sketch.</desc>
<g id="页面-1">
	<g id="用户中心" transform="translate(-33.000000, -176.000000)">
		<g id="wodechanpin" transform="translate(33.000000, 176.000000)">
			<path id="形状" class="st0" d="M15.2,2.8L8.5,0.1h0l-0.1,0c0,0,0,0,0,0C8.3,0,8.1,0,8,0C7.8,0,7.7,0,7.6,0.1c0,0,0,0,0,0
				c0,0,0,0-0.1,0c0,0,0,0,0,0L0.8,2.8c0,0,0,0,0,0C0.3,2.9,0,3.4,0,3.9v9c0,0.5,0.3,1,0.7,1.1c0,0,0,0,0.1,0l6.7,2.7c0,0,0,0,0.1,0
				c0.1,0.1,0.3,0.1,0.4,0.1c0.1,0,0.3,0,0.4-0.1c0,0,0,0,0.1,0l6.7-2.7c0,0,0,0,0.1,0c0.4-0.2,0.7-0.6,0.7-1.1v-9
				C16,3.4,15.6,2.9,15.2,2.8z M13.2,5L8.6,6.9v6.1c0,0.3-0.3,0.6-0.6,0.6c-0.3,0-0.6-0.3-0.6-0.6V6.9L2.8,5.1
				C2.5,5,2.3,4.6,2.5,4.3C2.6,4,3,3.8,3.3,3.9L8,5.8l4.7-2c0.3-0.1,0.7,0,0.8,0.3C13.7,4.5,13.5,4.9,13.2,5z"/>
		</g>
	</g>
</g>
</svg>
