<?xml version="1.0" encoding="UTF-8"?>
<svg width="18px" height="16px" viewBox="0 0 18 16" version="1.1" xmlns="http://www.w3.org/2000/svg" xmlns:xlink="http://www.w3.org/1999/xlink">
    <!-- Generator: Sketch 52 (66869) - http://www.bohemiancoding.com/sketch -->
    <title>zhongzhuangxitong-2</title>
    <desc>Created with Sketch.</desc>
    <g id="页面-1" stroke="none" stroke-width="1" fill="none" fill-rule="evenodd">
        <g id="产品详情" transform="translate(-927.000000, -610.000000)" fill="#0360FF" fill-rule="nonzero">
            <g id="zhongzhuangxitong-2" transform="translate(927.000000, 610.000000)">
                <path d="M17.8085747,7.37088937 C17.6962459,7.25836944 17.5437806,7.1951403 17.3847885,7.1951403 C17.2257964,7.1951403 17.0733312,7.25836944 16.9610024,7.37088937 L16.7044529,7.62743884 C16.6692811,5.61939839 15.8538521,3.70390339 14.4308732,2.28665444 C12.9734151,0.820758487 10.9899765,-0.000979571713 8.92285216,0.00468293268 C6.855507,-0.00120678412 4.87179802,0.820553831 3.41423166,2.28665444 C3.18018103,2.52053955 3.18004685,2.8998764 3.41393195,3.13392703 C3.64781706,3.36797765 4.02715391,3.36811183 4.26120454,3.13422673 C5.49486226,1.8938883 7.17347305,1.19865808 8.92285216,1.20351219 C10.6839323,1.20351219 12.3383167,1.88924252 13.5839004,3.13422673 C14.7766934,4.32369551 15.4649957,5.92722949 15.5056237,7.61125464 L15.2664572,7.37148877 C15.115053,7.22008456 14.8943766,7.16095449 14.6875546,7.21637228 C14.4807326,7.27179007 14.3191862,7.43333644 14.2637684,7.64015843 C14.2083506,7.84698043 14.2674807,8.06765687 14.4188849,8.21906108 L15.6902434,9.48982009 C15.8024149,9.60263546 15.9549391,9.66606888 16.1140295,9.66606888 C16.2731199,9.66606888 16.4256441,9.60263546 16.5378157,9.48982009 L17.8085747,8.21906108 C17.921131,8.10662992 17.984375,7.95406541 17.984375,7.79497522 C17.984375,7.63588503 17.921131,7.48332052 17.8085747,7.37088937 Z M13.7253622,12.4563231 C12.491416,13.6961587 10.8129411,14.3911168 9.06371459,14.3864382 C7.3146693,14.3910902 5.63639045,13.6961239 4.4026664,12.4563231 C3.22885957,11.2853758 2.54348875,9.71238659 2.48513899,8.05542088 L2.72070894,8.29099084 C2.83288047,8.40380621 2.98540466,8.46723963 3.14449508,8.46723963 C3.3035855,8.46723963 3.45610969,8.40380621 3.56828123,8.29099084 C3.68080116,8.17866207 3.7440303,8.02619678 3.7440303,7.86720468 C3.7440303,7.70821258 3.68080116,7.5557473 3.56828123,7.44341853 L2.29692279,6.17325893 C2.18459402,6.060739 2.03212874,5.99750986 1.87313664,5.99750986 C1.71414455,5.99750986 1.56167927,6.060739 1.4493505,6.17325893 L0.178591469,7.44341853 C-0.0554591598,7.67746915 -0.0554591637,8.0569402 0.17859146,8.29099083 C0.412642085,8.52504146 0.792113127,8.52504146 1.02616376,8.29099084 L1.28630971,8.03084488 C1.3380257,10.0147532 2.15079511,11.9027734 3.55629293,13.3038954 C5.01396378,14.7694016 6.99731593,15.5908879 9.064314,15.5852675 C11.1315329,15.5911151 13.1151553,14.7696062 14.5729345,13.3038954 C14.8069851,13.0698448 14.8069851,12.6903737 14.5729345,12.4563231 C14.3388839,12.2222725 13.9594128,12.2222725 13.7253622,12.4563231 Z" id="形状"></path>
            </g>
        </g>
    </g>
</svg>