<?xml version="1.0" encoding="UTF-8"?>
<svg width="16px" height="16px" viewBox="0 0 16 16" version="1.1" xmlns="http://www.w3.org/2000/svg" xmlns:xlink="http://www.w3.org/1999/xlink">
    <!-- Generator: Sketch 52 (66869) - http://www.bohemiancoding.com/sketch -->
    <title>zhongzhimima</title>
    <desc>Created with Sketch.</desc>
    <g id="页面-1" stroke="none" stroke-width="1" fill="none" fill-rule="evenodd">
        <g id="产品详情" transform="translate(-1120.000000, -610.000000)" fill="#0360FF">
            <g id="zhongzhimima" transform="translate(1120.000000, 610.000000)">
                <path d="M15.9504348,7.20295652 C15.9329102,6.99992424 15.8074484,6.82204535 15.6220704,6.73740373 C15.4366923,6.65276211 15.2201039,6.67446449 15.0552051,6.79420421 C14.8903062,6.91394393 14.8026317,7.1131793 14.8257391,7.31565217 C15.0412349,9.46241152 14.2342961,11.5854842 12.6473064,13.0471537 C11.0603167,14.5088233 8.87817768,15.1387893 6.75634783,14.7478261 C3.0373913,14.0627826 0.569565217,10.4793043 1.25530435,6.76017391 C1.72257212,4.22944131 3.56699893,2.17313487 6.03222927,1.4344969 C8.49745961,0.69585893 11.1687272,1.39916267 12.9506087,3.256 L12.1097391,3.256 C11.7975782,3.256 11.5445217,3.50905645 11.5445217,3.82121739 C11.5445217,4.13337834 11.7975782,4.38643478 12.1097391,4.38643478 L14.4227826,4.38643478 C14.7349436,4.38643478 14.988,4.13337834 14.988,3.82121739 L14.988,1.62 C14.988,1.30783905 14.7349436,1.05478261 14.4227826,1.05478261 C14.1106217,1.05478261 13.8575652,1.30783905 13.8575652,1.62 L13.8575652,2.56904348 C12.693913,1.31078261 11.161913,0.463130435 9.44956522,0.147478261 C5.7124558,-0.539523211 2.00841623,1.5001235 0.590897314,5.02554516 C-0.826621607,8.55096683 0.434471231,12.5870184 3.60695652,14.6782609 C4.49881954,15.2665912 5.50027045,15.6688279 6.55130435,15.8608696 C7.03228856,15.9499369 7.52040395,15.9948773 8.00956522,15.9951304 C11.8608258,15.9922919 15.1611302,13.2405144 15.8563478,9.45252174 C15.9935825,8.7108494 16.0252584,7.95349809 15.9504348,7.20295652 Z" id="路径"></path>
                <path d="M4.13321739,7.07826087 L4.13321739,11.8052174 C4.13321739,12.1173783 4.38627384,12.3704348 4.69843478,12.3704348 L11.3015652,12.3704348 C11.6137262,12.3704348 11.8667826,12.1173783 11.8667826,11.8052174 L11.8667826,7.07826087 C11.8667826,6.76609992 11.6137262,6.51304348 11.3015652,6.51304348 L10.4408696,6.51304348 C10.4480763,6.4769679 10.4516882,6.44026662 10.4516522,6.40347826 C10.4516522,5.02608696 9.33113043,3.9053913 7.95373913,3.9053913 C6.57634783,3.9053913 5.45565217,5.02608696 5.45565217,6.40330435 C5.45569992,6.44008859 5.45931098,6.4767817 5.46643478,6.51286957 L4.69843478,6.51286957 C4.54849967,6.51286956 4.40470806,6.57244295 4.29870423,6.67847939 C4.19270041,6.78451583 4.13317126,6.92832577 4.13321739,7.07826087 Z M6.5853913,6.40347826 C6.57984003,5.91121935 6.83927558,5.45395921 7.26468317,5.2062133 C7.69009076,4.95846738 8.21582228,4.95846738 8.64122987,5.2062133 C9.06663746,5.45395921 9.32607301,5.91121935 9.32052174,6.40347826 C9.32056948,6.4402625 9.32418055,6.47695561 9.33130435,6.51304348 L6.57547826,6.51304348 C6.58255487,6.47689289 6.58610774,6.44014105 6.58608696,6.40330435 L6.5853913,6.40347826 Z M5.26365217,7.64347826 L10.7363478,7.64347826 L10.7363478,11.24 L5.26365217,11.24 L5.26365217,7.64347826 Z" id="形状" fill-rule="nonzero"></path>
            </g>
        </g>
    </g>
</svg>