<?xml version="1.0" encoding="UTF-8"?>
<svg width="16px" height="17px" viewBox="0 0 16 17" version="1.1" xmlns="http://www.w3.org/2000/svg" xmlns:xlink="http://www.w3.org/1999/xlink">
    <!-- Generator: Sketch 52 (66869) - http://www.bohemiancoding.com/sketch -->
    <title>dhcp-zhongqi</title>
    <desc>Created with Sketch.</desc>
    <g id="页面-1" stroke="none" stroke-width="1" fill="none" fill-rule="evenodd">
        <g id="产品详情" transform="translate(-928.000000, -522.000000)" fill="#0360FF" fill-rule="nonzero">
            <g id="dhcp-zhongqi" transform="translate(928.000000, 522.333333)">
                <path d="M8.09642857,4.31964286 L8.09642857,4.32142857 C8.41964286,4.32142857 8.675,4.125 8.675,3.875 L8.675,0.457142857 C8.675,0.207142857 8.42321429,0.00892857143 8.09642857,0.00892857143 L7.69464286,0.00892857143 C7.37142857,0.00892857143 7.11607143,0.205357143 7.11607143,0.457142857 L7.11607143,3.87142857 C7.11607143,4.12142857 7.36785714,4.31785714 7.69464286,4.31785714 L8.09642857,4.31785714 L8.09642857,4.31964286 Z M4.45357143,5.70714286 C4.525,5.77857143 4.61607143,5.81428571 4.73571429,5.81964286 C4.8875,5.81964286 5.05,5.74642857 5.18035714,5.61607143 L5.46428571,5.33214286 C5.69285714,5.10357143 5.73392857,4.78571429 5.55535714,4.60714286 L3.13928571,2.19107143 C2.9625,2.01428571 2.64464286,2.05357143 2.41428571,2.28392857 L2.13035714,2.56785714 C1.90178571,2.79642857 1.86071429,3.11428571 2.03928571,3.29285714 L4.45357143,5.70714286 Z M4.31964286,8.30714286 L4.31964286,7.90535714 C4.31964286,7.58214286 4.12321429,7.32678571 3.87142857,7.32678571 L0.455357143,7.32678571 C0.205357143,7.32678571 0.00892857143,7.58214286 0.00892857143,7.90535714 L0.00892857143,8.30714286 C0.00892857143,8.63035714 0.205357143,8.88571429 0.455357143,8.88571429 L3.87142857,8.88571429 C4.12142857,8.88392857 4.31964286,8.63214286 4.31964286,8.30714286 Z M5.32678571,10.5339286 C5.09821429,10.3053571 4.78035714,10.2660714 4.60178571,10.4410714 L2.18392857,12.8553571 C2.00714286,13.0321429 2.04821429,13.35 2.27678571,13.5803571 L2.56071429,13.8642857 C2.65892857,13.9625 2.77678571,14.0285714 2.89642857,14.0553571 C2.93392857,14.0625 2.96964286,14.0678571 3.00357143,14.0678571 C3.11428571,14.0678571 3.2125,14.0285714 3.28571429,13.9571429 L5.70178571,11.5428571 C5.77321429,11.4714286 5.81428571,11.3714286 5.81428571,11.2642857 C5.81428571,11.1125 5.74107143,10.95 5.61071429,10.8214286 L5.32678571,10.5339286 Z M8.30714286,11.6803571 L7.90535714,11.6803571 C7.58214286,11.6803571 7.32678571,11.8767857 7.32678571,12.1267857 L7.32678571,15.5410714 C7.32678571,15.7910714 7.57857143,15.9892857 7.90535714,15.9892857 L8.30714286,15.9892857 C8.63035714,15.9892857 8.88571429,15.7928571 8.88571429,15.5410714 L8.88571429,12.1267857 C8.88214286,11.8767857 8.63035714,11.6803571 8.30714286,11.6803571 Z M11.5428571,10.2928571 C11.4714286,10.2214286 11.3714286,10.1821429 11.2607143,10.1821429 C11.1089286,10.1821429 10.9464286,10.2553571 10.8160714,10.3857143 L10.5321429,10.6696429 C10.3035714,10.8982143 10.2625,11.2160714 10.4410714,11.3946429 L12.8571429,13.8107143 C12.9303571,13.8839286 13.0303571,13.9214286 13.1375,13.9214286 C13.2839286,13.9214286 13.4482143,13.8535714 13.5821429,13.7196429 L13.8660714,13.4357143 C14.0946429,13.2071429 14.1357143,12.8892857 13.9589286,12.7107143 L11.5428571,10.2928571 Z M15.5446429,7.11607143 L12.1267857,7.11607143 C11.8767857,7.11607143 11.6785714,7.37142857 11.6785714,7.69464286 L11.6785714,8.09642857 C11.6785714,8.41964286 11.875,8.675 12.1267857,8.675 L15.5428571,8.675 C15.7928571,8.675 15.9910714,8.41964286 15.9910714,8.09642857 L15.9910714,7.69464286 C15.9910714,7.37142857 15.7946429,7.11607143 15.5446429,7.11607143 Z M10.6696429,5.46607143 C10.8017857,5.59821429 10.9660714,5.66785714 11.1142857,5.66785714 C11.2214286,5.66785714 11.3196429,5.63035714 11.3946429,5.55714286 L13.8107143,3.14285714 C13.9875,2.96607143 13.9464286,2.64821429 13.7178571,2.41785714 L13.4339286,2.13392857 C13.2053571,1.90535714 12.8875,1.86428571 12.7089286,2.04107143 L10.2928571,4.45357143 C10.1160714,4.63035714 10.1553571,4.94821429 10.3857143,5.17857143 L10.6696429,5.46607143 Z" id="形状"></path>
            </g>
        </g>
    </g>
</svg>