<?xml version="1.0" encoding="UTF-8"?>
<svg width="16px" height="11px" viewBox="0 0 16 11" version="1.1" xmlns="http://www.w3.org/2000/svg" xmlns:xlink="http://www.w3.org/1999/xlink">
    <!-- Generator: Sketch 52 (66869) - http://www.bohemiancoding.com/sketch -->
    <title>yanjing-3</title>
    <desc>Created with Sketch.</desc>
    <g id="页面-1" stroke="none" stroke-width="1" fill="none" fill-rule="evenodd">
        <g id="产品详情" transform="translate(-764.000000, -636.000000)" fill="#0360FF">
            <g id="yanjing-3" transform="translate(764.000000, 636.000000)">
                <path d="M7.99939623,1.09334517 C11.0085327,1.09334517 13.5986504,2.85831743 14.8107614,5.40570921 L15.9919201,5.40570921 C14.7117425,2.24637514 11.6182375,0.0156625971 7.99937847,0.0156625971 C4.38110544,0.0156625971 1.28760044,2.24637514 0.00744062153,5.40570921 L1.18861709,5.40569145 C2.40069256,2.85831743 4.99081021,1.09332741 7.99939623,1.09332741 L7.99939623,1.09334517 Z" id="路径"></path>
                <path d="M7.99939623,9.71805549 C4.99082797,9.71805549 2.40069256,7.95308324 1.18861709,5.40569145 L0.00744062153,5.40569145 C1.28758269,8.56559378 4.38108768,10.7962886 7.99939623,10.7962886 C11.6182375,10.7962886 14.7117603,8.56557603 15.9919201,5.40569145 L14.8107436,5.40569145 C13.5986326,7.95308324 11.0085327,9.71805549 7.99937847,9.71805549 L7.99939623,9.71805549 Z" id="路径"></path>
                <path d="M5.1248657,5.40597558 C5.1248657,6.99375805 6.41186238,8.28075472 7.99962708,8.28075472 C9.58744506,8.28075472 10.8744062,6.99375805 10.8744062,5.40597558 C10.8744062,3.8181576 9.58744506,2.53119645 7.99962708,2.53119645 C6.41184462,2.53119645 5.1248657,3.8181576 5.1248657,5.40597558 Z M9.79672364,5.40597558 C9.79672364,6.39829523 8.99192897,7.20303663 7.99962708,7.20303663 C7.00732519,7.20303663 6.20311654,6.39827747 6.20311654,5.40597558 C6.20311654,4.41365594 7.00732519,3.60886127 7.99962708,3.60886127 C8.99192897,3.60886127 9.79672364,4.41365594 9.79672364,5.40597558 Z" id="形状" fill-rule="nonzero"></path>
            </g>
        </g>
    </g>
</svg>