<?xml version="1.0" encoding="UTF-8"?>
<svg width="14px" height="16px" viewBox="0 0 14 16" version="1.1" xmlns="http://www.w3.org/2000/svg" xmlns:xlink="http://www.w3.org/1999/xlink">
    <!-- Generator: Sketch 52 (66869) - http://www.bohemiancoding.com/sketch -->
    <title>zhuce</title>
    <desc>Created with Sketch.</desc>
    <g id="页面-1" stroke="none" stroke-width="1" fill="none" fill-rule="evenodd">
        <g id="用户推广" transform="translate(-933.000000, -276.000000)" fill="#0360FF" fill-rule="nonzero">
            <g id="zhuce" transform="translate(933.000000, 276.000000)">
                <path d="M8.98128713,9.30023762 C9.21425623,9.39134179 9.44188111,9.49556132 9.66306931,9.61239604 C9.93720792,9.75718812 10.0420792,10.0968119 9.89728713,10.3709703 C9.75249505,10.6451287 9.41287129,10.7499802 9.13871287,10.6052079 C8.35009901,10.1887129 7.47027723,9.9679802 6.55744554,9.9679802 C3.89487129,9.9679802 1.62366337,11.861604 1.12546535,14.4421188 C1.06669307,14.7465347 0.772257426,14.9456832 0.467841584,14.8869109 C0.163405941,14.8281386 -0.0357227723,14.533703 0.023049505,14.2292871 C0.463386139,11.9484752 2.0529505,10.1145149 4.13451485,9.30073267 C2.61930693,8.45186139 1.59524752,6.83146535 1.59524752,4.9719802 C1.59524752,2.2330495 3.8169901,0.0128712871 6.55746535,0.0128712871 C9.29790099,0.0128712871 11.5196436,2.23306931 11.5196436,4.9719802 C11.5196436,6.83110891 10.4959802,8.45122772 8.98128713,9.30023762 Z M10.3968713,4.9719802 C10.3968713,2.85332673 8.6779802,1.13564356 6.55746535,1.13564356 C4.43691089,1.13564356 2.7180198,2.85330693 2.7180198,4.9719802 C2.7180198,7.09063366 4.43691089,8.80829703 6.55746535,8.80829703 C8.6779802,8.80829703 10.3968713,7.09061386 10.3968713,4.9719802 Z M10.6482376,11.8387129 L10.6482376,10.1550495 C10.6480626,10.0553637 10.674519,9.95744052 10.7248713,9.87140594 C10.7736735,9.78810557 10.8430513,9.71873458 10.9263564,9.66994059 C11.012391,9.61958834 11.1103142,9.59313186 11.21,9.59330693 C11.3096858,9.59313186 11.407609,9.61958834 11.4936436,9.66994059 C11.5769415,9.71873726 11.6463122,9.78810803 11.6951089,9.87140594 C11.7454612,9.95744052 11.7719176,10.0553637 11.7717426,10.1550495 L11.7717426,11.8387129 L13.4386535,11.8387129 C13.7486733,11.8387129 14,12.0900396 14,12.4000792 C14,12.710099 13.7486733,12.9614257 13.4386535,12.9614257 L11.7717228,12.9614257 L11.7717228,14.6263762 C11.7718978,14.7260621 11.7454414,14.8239852 11.6950891,14.9100198 C11.6462979,14.9933153 11.5769342,15.0626858 11.4936436,15.1114851 C11.407609,15.1618374 11.3096858,15.1882939 11.21,15.1881188 C11.1103142,15.1882939 11.012391,15.1618374 10.9263564,15.1114851 C10.8430513,15.0626912 10.7736735,14.9933202 10.7248713,14.9100198 C10.674519,14.8239852 10.6480626,14.7260621 10.6482376,14.6263762 L10.6482376,12.9614257 L8.96261386,12.9614257 C8.65259406,12.9614257 8.40126733,12.710099 8.40126733,12.4000792 C8.40126733,12.0900396 8.65259406,11.8387129 8.96261386,11.8387129 L10.6482376,11.8387129 Z" id="形状"></path>
            </g>
        </g>
    </g>
</svg>