<?xml version="1.0" encoding="UTF-8"?>
<svg width="15px" height="16px" viewBox="0 0 15 16" version="1.1" xmlns="http://www.w3.org/2000/svg" xmlns:xlink="http://www.w3.org/1999/xlink">
    <!-- Generator: Sketch 52 (66869) - http://www.bohemiancoding.com/sketch -->
    <title>zhongqi-2 copy</title>
    <desc>Created with Sketch.</desc>
    <g id="页面-1" stroke="none" stroke-width="1" fill="none" fill-rule="evenodd">
        <g id="产品详情" transform="translate(-1119.000000, -522.000000)" fill="#0360FF" fill-rule="nonzero">
            <g id="zhongqi-2-copy" transform="translate(1119.000000, 522.000000)">
                <path d="M10.9859857,2.01235154 C11.1914166,2.01237757 11.3917836,2.0761126 11.5594774,2.19477435 C14.3546185,4.00029961 15.6213532,7.43491321 14.6679159,10.6229678 C13.7144787,13.8110225 10.7700429,15.9862202 7.442569,15.9606824 C4.11509509,15.9351447 1.20439262,13.7150099 0.300000301,10.5126967 C-0.604392017,7.31038362 0.714910414,3.89561737 3.53743468,2.13320665 C3.54769596,2.1263658 3.56935867,2.11610451 3.56935867,2.11610451 C3.87863737,1.96260465 4.24529946,1.97993918 4.5387172,2.16193246 C4.83213494,2.34392574 5.01058741,2.66470025 5.01049881,3.00997625 C5.00424525,3.38555635 4.79591175,3.72856569 4.46551069,3.90726841 C2.44968737,5.24554904 1.54857878,7.74638928 2.24751424,10.0628581 C2.94644969,12.379327 5.0803846,13.9644202 7.5,13.9644202 C9.9196154,13.9644202 12.0535503,12.379327 12.7524858,10.0628581 C13.4514212,7.74638928 12.5503126,5.24554904 10.5344893,3.90726841 C10.2255107,3.72712589 9.9872209,3.39990499 9.9872209,3.00997625 C9.9872209,2.45814727 10.4341568,2.01235154 10.9848456,2.01235154 L10.9859857,2.01235154 Z M7.49942993,0 C8.05011876,0 8.49705463,0.446935867 8.49705463,0.997624703 L8.49705463,8.97862233 C8.49705464,9.33503931 8.30690845,9.66438219 7.99824229,9.84259069 C7.68957613,10.0207992 7.30928373,10.0207992 7.00061757,9.84259069 C6.69195141,9.66438219 6.50180522,9.33503931 6.50180523,8.97862233 L6.50180523,0.997624703 C6.50180523,0.446935867 6.94760095,0 7.49942993,0 Z" id="形状"></path>
            </g>
        </g>
    </g>
</svg>