<?xml version="1.0" encoding="UTF-8"?>
<svg width="24px" height="25px" viewBox="0 0 24 25" version="1.1" xmlns="http://www.w3.org/2000/svg" xmlns:xlink="http://www.w3.org/1999/xlink">
    <!-- Generator: Sketch 52 (66869) - http://www.bohemiancoding.com/sketch -->
    <title>neicun</title>
    <desc>Created with Sketch.</desc>
    <g id="页面-1" stroke="none" stroke-width="1" fill="none" fill-rule="evenodd">
        <g id="产品详情" transform="translate(-734.000000, -295.000000)" fill="#E7E8EC">
            <g id="分组-9" transform="translate(540.000000, 248.000000)">
                <g id="neicun" transform="translate(194.000000, 47.000000)">
                    <path d="M22.909012,8.19180723 C22.9104145,8.8832742 23.3475731,9.49874902 24,9.72780723 L24,21.8278554 C23.9998403,23.0328145 23.0229832,24.0095422 21.8180241,24.0095422 L8.7273253,24.0095422 L8.7273253,18.5551807 L6.54563855,18.5551807 L6.54563855,24.0095422 L2.1819759,24.0095422 C0.977016801,24.0095422 0.000159681832,23.0328145 -1.42108547e-14,21.8278554 L-1.42108547e-14,9.72780723 C0.653203151,9.49974236 1.09074184,8.88353543 1.09074184,8.19166265 C1.09074184,7.49978987 0.653203151,6.88358294 -1.37999384e-14,6.65551807 L-1.37999384e-14,2.19180723 C0.000159656296,0.986801351 0.976970026,0.0099909816 2.1819759,0.0098313253 L21.8180241,0.0098313253 C23.02303,0.0099909816 23.9998403,0.986801351 24,2.19180723 L24,6.65551807 C23.3474732,6.88461162 22.910292,7.50023404 22.909012,8.19180723 Z M21.8180241,21.8278554 L21.8180241,10.8549398 C20.363427,9.37734217 20.363427,7.00598313 21.8180241,5.52838554 L21.8180241,2.19180723 L2.1819759,2.19180723 L2.1819759,5.52838554 C3.63657304,7.00598313 3.63657304,9.37734217 2.1819759,10.8549398 L2.1819759,21.8278554 L4.36366265,21.8278554 L4.36366265,18.5551807 C4.36366265,17.9765113 4.59355796,17.4215469 5.00276613,17.012393 C5.41197431,16.603239 5.96696916,16.3734173 6.54563855,16.373494 L8.7273253,16.373494 C9.93223762,16.373494 10.909012,17.3502684 10.909012,18.5551807 L10.909012,21.8278554 L21.8180241,21.8278554 Z" id="形状" fill-rule="nonzero"></path>
                    <path d="M14.1819759,16.373494 L14.1816867,16.373494 C14.909012,16.373494 15.2726747,16.7371566 15.2726747,17.4644819 L15.2726747,21.8278554 C15.2726747,22.5551807 14.909012,22.9188434 14.1816867,22.9188434 L14.1819759,22.9188434 C13.4546506,22.9188434 13.090988,22.5551807 13.090988,21.8278554 L13.090988,17.4644819 C13.090988,16.7371566 13.4546506,16.373494 14.1819759,16.373494 Z" id="路径"></path>
                    <path d="M18.5453494,16.373494 L18.5450602,16.373494 C19.2723855,16.373494 19.6360482,16.7371566 19.6360482,17.4644819 L19.6360482,21.8278554 C19.6360482,22.5551807 19.2723855,22.9188434 18.5450602,22.9188434 L18.5453494,22.9188434 C17.8180241,22.9188434 17.4543614,22.5551807 17.4543614,21.8278554 L17.4543614,17.4644819 C17.4543614,16.7371566 17.8180241,16.373494 18.5453494,16.373494 Z" id="路径"></path>
                    <path d="M16.3636627,13.1008193 L7.63633735,13.1008193 C6.43137826,13.1006596 5.45465059,12.1238025 5.4546506,10.9188434 L5.4546506,7.64616867 C5.45496994,6.44148221 6.43165084,5.4650602 7.63633735,5.46506024 L16.3636627,5.46506024 C17.568575,5.46506024 18.5453494,6.44183467 18.5453494,7.64674699 L18.5453494,10.9188434 C18.5453494,12.1238025 17.5686217,13.1006596 16.3636627,13.1008193 Z M16.3636627,10.9188434 L16.3636627,7.64616867 L7.63633735,7.64616867 L7.63633735,10.9188434 L16.3636627,10.9188434 Z" id="形状" fill-rule="nonzero"></path>
                </g>
            </g>
        </g>
    </g>
</svg>