<?xml version="1.0" encoding="UTF-8"?>
<svg width="14px" height="16px" viewBox="0 0 14 16" version="1.1" xmlns="http://www.w3.org/2000/svg" xmlns:xlink="http://www.w3.org/1999/xlink">
    <!-- Generator: Sketch 52 (66869) - http://www.bohemiancoding.com/sketch -->
    <title>gongdan</title>
    <desc>Created with Sketch.</desc>
    <g id="页面-1" stroke="none" stroke-width="1" fill="none" fill-rule="evenodd">
        <g id="用户中心" transform="translate(-1115.000000, -214.000000)" fill="#7C848E" fill-rule="nonzero">
            <g id="gongdan" transform="translate(1115.000000, 214.000000)">
                <path d="M11.9907721,2.01326512 L10.4925767,2.01326512 L10.4925767,1.01516279 L9.14753488,1.01516279 C8.71620465,0.420260465 7.92022326,0.0160186047 6.99817674,0.0160186047 C6.07613023,0.0160186047 5.28014884,0.420260465 4.84777674,1.01412093 L3.50377674,1.01412093 L3.50377674,2.01222326 L2.0055814,2.01222326 C0.902251163,2.01222326 0.00833488372,2.90613953 0.00833488372,4.00946977 L0.00833488372,13.9946605 C0.00833488372,15.0979907 0.902251163,15.991907 2.0055814,15.991907 L11.9907721,15.991907 C13.0941023,15.991907 13.9880186,15.0979907 13.9880186,13.9946605 L13.9880186,4.01051163 C13.9880186,2.9071814 13.0941023,2.01326512 11.9907721,2.01326512 Z M4.34351628,1.96221395 L5.52394419,1.96221395 C5.52394419,1.36314419 6.18448372,0.876595349 6.9992186,0.876595349 C7.81395349,0.876595349 8.47449302,1.36210233 8.47449302,1.96221395 L9.65492093,1.96221395 L9.65492093,4.1324093 L4.34351628,4.1324093 L4.34351628,1.96221395 Z M10.3310884,12.8434047 L3.44334884,12.8434047 C3.2151814,12.8434047 3.03077209,12.6589953 3.03077209,12.4308279 C3.03077209,12.2026605 3.2151814,12.0182512 3.44334884,12.0182512 L10.3310884,12.0182512 C10.5592558,12.0182512 10.7436651,12.2026605 10.7436651,12.4308279 C10.7426233,12.6589953 10.558214,12.8434047 10.3310884,12.8434047 Z M10.3310884,10.391907 L3.44334884,10.391907 C3.2151814,10.391907 3.03077209,10.2074977 3.03077209,9.97933023 C3.03077209,9.75116279 3.2151814,9.56675349 3.44334884,9.56675349 L10.3310884,9.56675349 C10.5592558,9.56675349 10.7436651,9.75116279 10.7436651,9.97933023 C10.7426233,10.2074977 10.558214,10.391907 10.3310884,10.391907 Z M10.3310884,7.96228837 L3.44334884,7.96228837 C3.2151814,7.96228837 3.03077209,7.77787907 3.03077209,7.54971163 C3.03077209,7.32154419 3.2151814,7.13713488 3.44334884,7.13713488 L10.3310884,7.13713488 C10.5592558,7.13713488 10.7436651,7.32154419 10.7436651,7.54971163 C10.7426233,7.77683721 10.558214,7.96228837 10.3310884,7.96228837 Z" id="形状"></path>
            </g>
        </g>
    </g>
</svg>