<?xml version="1.0" encoding="UTF-8"?>
<svg width="76px" height="76px" viewBox="0 0 76 76" version="1.1" xmlns="http://www.w3.org/2000/svg" xmlns:xlink="http://www.w3.org/1999/xlink">
    <!-- Generator: Sketch 52 (66869) - http://www.bohemiancoding.com/sketch -->
    <title>分组 3 copy 2</title>
    <desc>Created with Sketch.</desc>
    <g id="页面-1" stroke="none" stroke-width="1" fill="none" fill-rule="evenodd">
        <g id="用户中心-空状态" transform="translate(-506.000000, -656.000000)" fill-rule="nonzero">
            <g id="分组-3-copy-2" transform="translate(507.000000, 657.000000)">
                <g id="gongdan-2" transform="translate(19.000000, 19.000000)" fill="#CCD1D9">
                    <path d="M8.93839348,11.6071711 C8.29466822,11.6071711 7.65094296,11.0707334 7.65094296,10.3197206 C7.65094296,9.5687078 8.18738068,9.03227008 8.93839348,9.03227008 L26.8554133,9.03227008 C27.6064261,9.03227008 28.1428638,9.5687078 28.1428638,10.3197206 C28.1428638,11.0707334 27.6064261,11.6071711 26.8554133,11.6071711 L8.93839348,11.6071711 Z M26.9627008,16.7569732 C27.6064261,16.7569732 28.1428638,17.2934109 28.1428638,18.0444237 C28.1428638,18.7954366 27.6064261,19.3318743 26.8554133,19.3318743 L8.93839348,19.3318743 C8.18738068,19.3318743 7.65094296,18.7954366 7.65094296,18.0444237 C7.65094296,17.2934109 8.18738068,16.7569732 8.93839348,16.7569732 L26.9627008,16.7569732 Z M26.9627008,24.3743888 C27.6064261,24.3743888 28.1428638,25.0181141 28.1428638,25.6618393 C28.1428638,26.4128522 27.6064261,26.9492899 26.8554133,26.9492899 L8.93839348,26.9492899 C8.18738068,26.9492899 7.65094296,26.4128522 7.65094296,25.6618393 C7.65094296,24.9108265 8.18738068,24.3743888 8.93839348,24.3743888 L26.9627008,24.3743888 Z M14.1954831,3.88246799 C13.1226077,3.88246799 12.2643073,3.02416764 12.2643073,1.9512922 C12.2643073,0.878416764 13.1226077,0.0201164144 14.1954831,0.0201164144 L20.6327357,0.0201164144 C21.7056112,0.0201164144 22.5639115,0.878416764 22.5639115,1.9512922 C22.5639115,3.02416764 21.7056112,3.88246799 20.6327357,3.88246799 L14.1954831,3.88246799 Z M30.7177648,1.30756694 C33.6145285,1.30756694 35.8675669,3.6678929 35.9748545,6.45736903 L35.9748545,30.8116414 C35.9748545,33.7084051 33.6145285,35.9614435 30.8250524,35.9614435 L5.18332945,35.9614435 C2.28656577,35.9614435 0.0335273574,33.6011176 0.0335273574,30.8116414 L0.0335273574,6.45736903 C0.0335273574,3.6678929 2.28656577,1.30756694 5.07604191,1.30756694 L6.36349243,1.30756694 C7.11450524,1.30756694 7.65094296,1.84400466 7.65094296,2.59501746 C7.65094296,3.34603027 7.11450524,3.88246799 6.36349243,3.88246799 L5.07604191,3.88246799 C3.68130384,3.88246799 2.50114086,5.06263097 2.50114086,6.45736903 L2.50114086,30.8116414 C2.50114086,32.2063795 3.68130384,33.3865425 5.07604191,33.3865425 L30.7177648,33.3865425 C32.1125029,33.3865425 33.2926659,32.2063795 33.2926659,30.8116414 L33.2926659,6.45736903 C33.2926659,5.06263097 32.2197905,3.88246799 30.7177648,3.88246799 L29.4303143,3.88246799 C28.6793015,3.88246799 28.1428638,3.34603027 28.1428638,2.59501746 C28.1428638,1.84400466 28.6793015,1.30756694 29.4303143,1.30756694 L30.7177648,1.30756694 Z" id="合并形状"></path>
                </g>
                <circle id="椭圆形" stroke="#CCD1D9" cx="37" cy="37" r="37"></circle>
            </g>
        </g>
    </g>
</svg>