<?xml version="1.0" encoding="utf-8"?>
<!-- Generator: Adobe Illustrator 24.0.2, SVG Export Plug-In . SVG Version: 6.00 Build 0)  -->
<svg version="1.1" id="图层_1" xmlns="http://www.w3.org/2000/svg" xmlns:xlink="http://www.w3.org/1999/xlink" x="0px" y="0px"
	 viewBox="0 0 22 22" style="enable-background:new 0 0 22 22;" xml:space="preserve">
<style type="text/css">
	.st0{fill-rule:evenodd;clip-rule:evenodd;fill:#FFFFFF;}
	.st1{fill:#A3A5AA;}
</style>
<title>zhongyingwenyuyan</title>
<desc>Created with Sketch.</desc>
<g id="页面-1">
	<g id="用户中心" transform="translate(-1285.000000, -21.000000)">
		<g id="zhongyingwenyuyan" transform="translate(1285.000000, 21.000000)">
			<polygon id="路径" class="st0" points="0,0 22,0 22,22 0,22 			"/>
			<path id="形状" class="st1" d="M16.9,6.4l0-3.8l-5.4,1.9L16.9,6.4z M10.7,4.2L5,2.2v4L10.7,4.2z M7.2,7.2l1-0.3v1.2l2-0.8v3.7
				l-0.8,0.3v-0.5L8,11.3l0,2l-0.8,0.3l0-2l-1.4,0.5l0,0.4L5,12.8l0-3.7l2.2-0.7V7.2z M9.4,8.5L8.1,9v1.4L9.4,10V8.5z M5.8,11.2
				l1.4-0.5l0-1.4L5.8,9.8V11.2z M11.1,4.6L3.8,7.1v10.1l7.4-2.5V4.6z M11.3,15.1c-2.7,0.9-5.3,1.8-8,2.7l0-10.9l13.9-4.6v4.3
				L18.6,7l0,10.5L11.3,15.1z M17.1,14.7c-0.3-1.2-0.6-2.3-1-3.5c-0.3-1.2-0.6-2.3-1-3.5c-0.3-0.1-0.7-0.3-1-0.4
				c-0.3,0.9-0.6,1.9-1,2.8l-1,2.8c0.4,0.1,0.7,0.3,1.1,0.4c0.1-0.4,0.3-0.9,0.4-1.3c0.7,0.2,1.3,0.5,2,0.7c0.1,0.5,0.3,1.1,0.4,1.6
				C16.4,14.4,16.7,14.5,17.1,14.7z M15.3,11.5c-0.2-0.9-0.5-1.7-0.7-2.6c-0.2,0.7-0.4,1.4-0.7,2.1C14.4,11.2,14.8,11.3,15.3,11.5z
				 M14.6,18.2C12,19.8,9.4,20,6.8,18.4l-0.1,0.2c2.5,1.6,5.1,1.6,7.7,0.1c0.2-0.1,0.3-0.2,0.5-0.3l0.3,0.5l0.7-1.3l-1.4,0.1
				L14.6,18.2z"/>
		</g>
	</g>
</g>
</svg>
