<?xml version="1.0" encoding="UTF-8"?>
<svg width="18px" height="16px" viewBox="0 0 18 16" version="1.1" xmlns="http://www.w3.org/2000/svg" xmlns:xlink="http://www.w3.org/1999/xlink">
    <!-- Generator: Sketch 52 (66869) - http://www.bohemiancoding.com/sketch -->
    <title>guangqi_zhuanhuazhibiao</title>
    <desc>Created with Sketch.</desc>
    <g id="页面-1" stroke="none" stroke-width="1" fill="none" fill-rule="evenodd">
        <g id="用户推广" transform="translate(-1213.000000, -277.000000)" fill="#0360FF" fill-rule="nonzero">
            <g id="guangqi_zhuanhuazhibiao" transform="translate(1213.000000, 277.000000)">
                <path d="M16.0060976,8.94844789 C15.8783814,8.94844789 15.7506652,8.90587582 15.6655211,8.82073171 L14.3883592,7.96929046 C14.0903548,7.75643014 14.0052106,7.37328159 14.2180709,7.07527716 C14.4309313,6.77727273 14.8140798,6.69212859 15.1120843,6.90498891 L16.0486696,7.50099777 L16.985255,6.90498891 C17.2832594,6.69212859 17.666408,6.77727273 17.8792683,7.07527716 C18.0921286,7.37328159 18.0069845,7.75643016 17.70898,7.96929046 L16.4318182,8.82073171 C16.2615299,8.90587582 16.1338137,8.94844789 16.0060976,8.94844789 Z M3.23447894,8.94844789 C3.10676276,8.94844789 2.97904657,8.90587582 2.89390244,8.82073171 L1.95731707,8.22472284 L1.02073171,8.82073171 C0.722727274,9.03359202 0.339578707,8.94844789 0.126718409,8.65044346 C-0.0861418902,8.35243902 -0.00099777439,7.96929046 0.297006659,7.75643016 L1.57416851,6.90498891 C1.78702882,6.77727273 2.08503326,6.77727273 2.29789357,6.90498891 L3.57505544,7.75643016 C3.87305987,7.96929048 3.95820401,8.35243902 3.74534369,8.65044346 C3.66019957,8.86330377 3.44733926,8.94844789 3.23447894,8.94844789 Z" id="形状"></path>
                <path d="M16.2189579,8.52272727 C15.8783814,8.52272727 15.5803769,8.22472284 15.5803769,7.88414634 C15.5803769,4.26552106 12.6003326,1.28547671 8.98170732,1.28547671 C6.51252772,1.28547671 4.25620842,2.6477827 3.10676276,4.86152993 C2.93647451,5.15953436 2.55332596,5.28725054 2.25532151,5.11696231 C1.95731705,4.94667408 1.82960089,4.56352551 1.99988914,4.26552106 C3.36219512,1.62605321 6.04423504,0.00831484756 8.98170732,0.00831484756 C13.3240576,0.00831484756 16.8575388,3.54179599 16.8575388,7.88414634 C16.8575388,8.22472284 16.5595344,8.52272727 16.2189579,8.52272727 Z M8.98170732,15.7599778 C4.63935699,15.7599778 1.10587582,12.2264967 1.10587582,7.88414634 C1.10587582,7.54356984 1.40388026,7.24556541 1.74445676,7.24556541 C2.08503326,7.24556541 2.38303769,7.54356984 2.38303769,7.88414634 C2.38303769,11.5027716 5.36308204,14.482816 8.98170732,14.482816 C11.493459,14.482816 13.8349224,12.9927938 14.941796,10.7364745 C15.1120843,10.4384701 15.4952328,10.2681818 15.7932372,10.4384701 C16.0912417,10.6087583 16.2615299,10.9919069 16.0912417,11.2899113 C14.8140798,14.0145233 12.0043237,15.7599778 8.98170732,15.7599778 Z" id="形状"></path>
                <path d="M11.4884793,11.5714286 L6.51152074,11.5714286 C5.76497696,11.5714286 5.14285714,10.9493088 5.14285714,10.202765 L5.14285714,5.22580645 C5.14285714,4.47926267 5.76497696,3.85714286 6.51152074,3.85714286 L11.4884793,3.85714286 C12.235023,3.85714286 12.8571429,4.47926267 12.8571429,5.22580645 L12.8571429,10.202765 C12.8571429,10.9493088 12.235023,11.5714286 11.4884793,11.5714286 Z M6.69722814,5.14285714 C6.54371002,5.14285714 6.42857143,5.25799573 6.42857143,5.41151386 L6.42857143,10.0170576 C6.42857143,10.1705757 6.54371002,10.2857143 6.69722814,10.2857143 L11.3027719,10.2857143 C11.45629,10.2857143 11.5714286,10.1705757 11.5714286,10.0170576 L11.5714286,5.41151386 C11.5714286,5.25799573 11.45629,5.14285714 11.3027719,5.14285714 L6.69722814,5.14285714 Z" id="形状"></path>
            </g>
        </g>
    </g>
</svg>