<?xml version="1.0" encoding="utf-8"?>
<!-- Generator: Adobe Illustrator 24.0.2, SVG Export Plug-In . SVG Version: 6.00 Build 0)  -->
<svg version="1.1" id="图层_1" xmlns="http://www.w3.org/2000/svg" xmlns:xlink="http://www.w3.org/1999/xlink" x="0px" y="0px"
	 viewBox="0 0 16 16" style="enable-background:new 0 0 16 16;" xml:space="preserve">
<style type="text/css">
	.st0{fill:#7C848E;}
</style>
<title>xiugaimima</title>
<desc>Created with Sketch.</desc>
<g id="页面-1">
	<g id="用户中心" transform="translate(-33.000000, -130.000000)">
		<g id="xiugaimima" transform="translate(33.000000, 130.000000)">
			<path id="路径" class="st0" d="M10.3,6.7L6.6,10v2.7h3l3.7-3.4v5.3c0,0.7-0.6,1.3-1.5,1.3H1.5C0.6,16,0,15.4,0,14.7V8
				c0-0.7,0.6-1.3,1.5-1.3H10.3z"/>
			<polygon id="路径_1_" class="st0" points="14.5,4.6 16,6 8.8,12 7.4,12 7.4,10.7 			"/>
			<path id="路径_2_" class="st0" d="M6.6,0C9.1,0,11,1.8,11,4v2H9.6V4c0-1.5-1.3-2.7-3-2.7s-3,1.2-3,2.7V6H2.2V4
				C2.2,1.8,4.2,0,6.6,0z"/>
		</g>
	</g>
</g>
</svg>
