<?xml version="1.0" encoding="UTF-8"?>
<svg width="16px" height="13px" viewBox="0 0 16 13" version="1.1" xmlns="http://www.w3.org/2000/svg" xmlns:xlink="http://www.w3.org/1999/xlink">
    <!-- Generator: Sketch 52 (66869) - http://www.bohemiancoding.com/sketch -->
    <title>yunwangzhanyemianzhengli-27</title>
    <desc>Created with Sketch.</desc>
    <g id="页面-1" stroke="none" stroke-width="1" fill="none" fill-rule="evenodd">
        <g id="产品详情" transform="translate(-1312.000000, -611.000000)" fill="#0360FF" fill-rule="nonzero">
            <g id="yunwangzhanyemianzhengli-27" transform="translate(1312.000000, 611.000000)">
                <path d="M1.06381655,12.551047 C0.79537686,12.551047 0.526937164,12.4416827 0.338035176,12.2328963 C0.158320538,12.0406065 0.0625504865,11.7846826 0.0718778546,11.5216508 C0.0812052228,11.258619 0.194862553,11.0101216 0.387746229,10.8310446 L5.23954514,6.31728081 L0.387746229,1.80351705 C0.193718765,1.6256595 0.0783966294,1.37793485 0.0672062909,1.11496196 C0.0560159524,0.851989073 0.149876352,0.59536304 0.328092949,0.401665315 C0.705896952,0.00397688533 1.33225625,-0.0159075413 1.72994471,0.351954261 L7.36717828,5.59149941 C7.56602249,5.78040142 7.68532903,6.04884112 7.68532903,6.31728081 C7.68532903,6.59566271 7.56602249,6.8541602 7.36717828,7.04306219 L1.72994471,12.2826073 C1.55098492,12.4615671 1.30242965,12.551047 1.06381655,12.551047 Z M14.9829118,12.551047 L10.1311129,12.551047 C9.58429132,12.551047 9.13689181,12.1036475 9.13689181,11.556826 C9.13689181,11.0100044 9.5842913,10.5626049 10.1311129,10.5626049 L14.9829118,10.5626049 C15.5297334,10.5626049 15.9771329,11.0100043 15.9771329,11.556826 C15.9771329,12.1036476 15.5396756,12.5510471 14.9829118,12.551047 Z" id="形状"></path>
            </g>
        </g>
    </g>
</svg>