<?xml version="1.0" encoding="UTF-8"?>
<svg width="16px" height="17px" viewBox="0 0 16 17" version="1.1" xmlns="http://www.w3.org/2000/svg" xmlns:xlink="http://www.w3.org/1999/xlink">
    <!-- Generator: Sketch 52 (66869) - http://www.bohemiancoding.com/sketch -->
    <title>tixian</title>
    <desc>Created with Sketch.</desc>
    <g id="页面-1" stroke="none" stroke-width="1" fill="none" fill-rule="evenodd">
        <g id="用户推广" transform="translate(-586.000000, -278.000000)" fill="#0360FF">
            <g id="tixian" transform="translate(586.000000, 278.000000)">
                <path d="M14.4874217,0.00121879821 L1.51254156,0.00121879821 C0.686976664,0.00121879821 0.0154308341,0.672782996 0.0154308341,1.49832952 L0.0154308341,4.49253265 C0.0154308341,5.31809754 0.686976682,5.98964337 1.51254156,5.98964337 L1.93359306,5.98964337 L1.93359306,14.5375449 C1.93359306,15.3630914 2.60513891,16.0346556 3.43070378,16.0346556 L12.5692595,16.0346556 C13.3948244,16.0346556 14.0663702,15.3630914 14.0663702,14.5375449 L14.0663702,5.98962502 L14.4874217,5.98962502 C15.3129866,5.98962502 15.9845324,5.31807917 15.9845324,4.4925143 L15.9845325,1.49832952 C15.9845325,0.672782996 15.3129866,0.00121879821 14.4874217,0.00121879821 Z M12.5692595,15.0365696 L3.4307038,15.0365696 C3.15583367,15.0365696 2.93166077,14.8128739 2.93166077,14.5375265 L2.93166077,3.49396935 L13.0682842,3.49396935 L13.0682842,14.5375265 C13.0683025,14.8128923 12.8441296,15.0365696 12.5692595,15.0365696 Z M14.9864648,4.49253265 C14.9864648,4.76788002 14.7622919,4.99157568 14.4874217,4.99157568 L14.0663702,4.99157568 L14.0663702,3.47838572 C14.3032083,3.43939914 14.4874217,3.24299776 14.4874217,2.99494466 C14.4874217,2.71912005 14.2642217,2.49590163 13.9883787,2.49590163 L2.01156624,2.49590163 C1.73574163,2.49590163 1.51252321,2.71910169 1.51252321,2.99494466 C1.51252321,3.24299776 1.69673668,3.43939912 1.93357471,3.47838572 L1.93357471,4.99155731 L1.51252321,4.99155731 C1.23765308,4.99155731 1.01348018,4.76786165 1.01348018,4.49251428 L1.01348018,1.49832952 C1.01348018,1.22298215 1.23765308,0.999286493 1.51252321,0.999286493 L14.4874034,0.999286493 C14.7622735,0.999286493 14.9864464,1.22298215 14.9864464,1.49832952 L14.9864464,4.49253265 L14.9864648,4.49253265 Z" id="形状" fill-rule="nonzero"></path>
                <path d="M9.76316117,6.10854881 L7.99997247,7.87173751 L6.23678377,6.10854881 C6.04183247,5.91361586 5.72604843,5.91361586 5.53111548,6.10854881 C5.33618253,6.30348176 5.33618253,6.61926579 5.53111548,6.81419873 L7.12178301,8.40438902 L6.2738247,8.40438902 C5.99800009,8.40438902 5.77478167,8.62758908 5.77478167,8.90343205 C5.77478167,9.17927503 5.99798172,9.40247509 6.2738247,9.40247509 L7.5175226,9.4024751 L7.5175226,10.196836 L6.26409641,10.196836 C5.96683284,10.196836 5.72511232,10.4380793 5.72511232,10.7358201 C5.72511232,11.0335976 5.96683284,11.2748042 6.26409641,11.2748042 L7.5175226,11.2748042 L7.5175226,12.3567004 C7.5175226,12.632525 7.74072265,12.8557435 8.01656563,12.8557435 C8.29240861,12.8557435 8.51560866,12.6325434 8.51560866,12.3567004 L8.51560866,11.2748042 L9.75734255,11.2748042 C10.0546061,11.2748042 10.2963266,11.0335793 10.2963266,10.7358201 C10.2963266,10.438061 10.0546061,10.196836 9.75734255,10.196836 L8.51560866,10.196836 L8.51560866,9.4024751 L9.76710755,9.4024751 C10.0429322,9.4024751 10.2661506,9.17927505 10.2661506,8.90343207 C10.2661506,8.62758909 10.0429505,8.40438904 9.76710755,8.40438904 L8.87819862,8.40438904 L10.4688662,6.81419874 C10.6637991,6.61926579 10.6637991,6.30348176 10.4688662,6.10854883 C10.2739332,5.91361589 9.95811247,5.91361586 9.76316117,6.10854881 Z" id="路径"></path>
            </g>
        </g>
    </g>
</svg>