<?xml version="1.0" encoding="UTF-8"?>
<svg width="54px" height="42px" viewBox="0 0 54 42" version="1.1" xmlns="http://www.w3.org/2000/svg" xmlns:xlink="http://www.w3.org/1999/xlink">
    <!-- Generator: Sketch 52 (66869) - http://www.bohemiancoding.com/sketch -->
    <title>oss</title>
    <desc>Created with Sketch.</desc>
    <g id="页面-1" stroke="none" stroke-width="1" fill="none" fill-rule="evenodd">
        <g id="首页-" transform="translate(-384.000000, -106.000000)" fill="#FFFFFF">
            <g id="oss" transform="translate(384.000000, 106.000000)">
                <path d="M33.387823,0.0176283186 C23.7003186,0.0176283186 15.5781239,6.69876106 13.3702301,15.7020531 C13.1732389,15.6917522 12.9762478,15.6865487 12.7741593,15.6865487 C5.7300531,15.6865487 0.0180530973,21.3985487 0.0180530973,28.4425487 C0.0180530973,31.9671504 1.44860177,35.1496991 3.75536283,37.4561416 C6.06180531,39.7678938 9.25465487,41.1880354 12.7741593,41.1880354 C16.2987611,41.1880354 19.4916106,39.7418761 21.7981593,37.4354336 C23.7988673,35.4347257 24.9235752,32.7550088 25.2450265,29.7797522 L20.6267257,29.416885 C19.579646,29.2873274 19.2427965,28.4943717 19.8802832,27.6494867 L27.7069381,17.9670796 C28.3393274,17.1221947 29.1997168,17.2259469 29.6143009,18.2003894 L34.0512212,29.0436106 C34.4658053,30.0181593 33.9423717,30.707469 32.895292,30.5780177 L29.4588319,30.2617699 C29.0700531,33.8538053 27.4529204,37.0258407 25.1929912,39.5397876 C27.7068319,40.6282832 30.4746903,41.2346549 33.3877168,41.2346549 C44.7699823,41.2346549 53.9962832,32.0085664 53.9962832,20.6260885 C53.9963894,9.2439292 44.7701947,0.0176283186 33.387823,0.0176283186 Z" id="路径"></path>
            </g>
        </g>
    </g>
</svg>