<?xml version="1.0" encoding="UTF-8"?>
<svg width="362px" height="108px" viewBox="0 0 362 108" version="1.1" xmlns="http://www.w3.org/2000/svg" xmlns:xlink="http://www.w3.org/1999/xlink">
    <!-- Generator: Sketch 52 (66869) - http://www.bohemiancoding.com/sketch -->
    <title>合并形状</title>
    <desc>Created with Sketch.</desc>
    <defs>
        <path d="M105.223016,84 L2,84 C0.8954305,84 1.3527075e-16,83.1045695 0,82 L0,2 C-1.3527075e-16,0.8954305 0.8954305,2.02906125e-16 2,0 L105.223016,0 C106.132475,4.0079774 109.716825,7 114,7 C118.283175,7 121.867525,4.0079774 122.776984,1.17683641e-14 L336,0 C337.104569,-2.02906125e-16 338,0.8954305 338,2 L338,82 C338,83.1045695 337.104569,84 336,84 L122.776984,84 C121.867525,79.9920226 118.283175,77 114,77 C109.716825,77 106.132475,79.9920226 105.223016,84 Z" id="path-1"></path>
        <filter x="-6.5%" y="-16.7%" width="113.0%" height="152.4%" filterUnits="objectBoundingBox" id="filter-3">
            <feOffset dx="0" dy="8" in="SourceAlpha" result="shadowOffsetOuter1"></feOffset>
            <feGaussianBlur stdDeviation="6" in="shadowOffsetOuter1" result="shadowBlurOuter1"></feGaussianBlur>
            <feComposite in="shadowBlurOuter1" in2="SourceAlpha" operator="out" result="shadowBlurOuter1"></feComposite>
            <feColorMatrix values="0 0 0 0 0   0 0 0 0 0   0 0 0 0 0  0 0 0 0.100713315 0" type="matrix" in="shadowBlurOuter1"></feColorMatrix>
        </filter>
    </defs>
    <g id="页面-1" stroke="none" stroke-width="1" fill="none" fill-rule="evenodd">
        <g id="确认订单" transform="translate(-348.000000, -848.000000)">
            <g id="分组-8" transform="translate(360.000000, 852.000000)">
                <mask id="mask-2" fill="white">
                    <use xlink:href="#path-1"></use>
                </mask>
                <g id="合并形状" fill-rule="nonzero">
                    <use fill="black" fill-opacity="1" filter="url(#filter-3)" xlink:href="#path-1"></use>
                    <path stroke="#E9661E" stroke-width="1" d="M104.832441,83.5 C105.943707,79.4108529 109.676639,76.5 114,76.5 C118.323361,76.5 122.056293,79.4108529 123.167559,83.5 L336,83.5 C336.828427,83.5 337.5,82.8284271 337.5,82 L337.5,2 C337.5,1.17157288 336.828427,0.5 336,0.5 L123.167559,0.5 C122.056293,4.58914714 118.323361,7.5 114,7.5 C109.676639,7.5 105.943707,4.58914714 104.832441,0.5 L2,0.5 C1.17157288,0.5 0.5,1.17157288 0.5,2 L0.5,82 C0.5,82.8284271 1.17157288,83.5 2,83.5 L104.832441,83.5 Z" stroke-linejoin="square" fill="#FFFFFF" fill-rule="evenodd"></path>
                </g>
            </g>
        </g>
    </g>
</svg>